<svg xmlns="http://www.w3.org/2000/svg" viewBox="0 0 150 150"><path fill="#9C54A1" d="M75.8 139V7.3l-10.9 7.9H49.5l-4.8 14.6-11.6 8.4 4.5 13.7-4.4 13.4 11.4 8.3 4.8 14.8h7.8l6.3 13.4h4.7l-24.7 11.8z"/><path fill="#FFF" d="M54.4 71.8c.2 5.1 4.3 9.2 9.3 9.2s9.1-4.1 9.3-9.2H54.4z"/><path d="M57.2 71.8c.4 3.3 3.1 5.9 6.5 5.9s6.1-2.6 6.5-5.9h-13z"/><path fill="#311537" d="M67.7 70.3h-8c-1.5 0-2.7-1.2-2.7-2.8 0-1.5 1.2-2.8 2.7-2.8h8c1.5 0 2.8 1.2 2.8 2.8 0 1.5-1.3 2.8-2.8 2.8zM43.3 39.8l-2.1 1.7-2.2-1.7zm12-8l-2.1 1.7-2.2-1.7zm14-10l-2.1 1.7-2.2-1.7zm1 12l-2.1 1.7-2.2-1.7zm-10 11l-2.1 1.7-2.2-1.7zm10 11l-2.1 1.7-2.2-1.7zm-4.4 52.7l-2.2 1.7-2.2-1.7zm-8 5l-2.2 1.7-2.2-1.7zm11 0l-2.2 1.7-2.2-1.7zm-5 6l-2.2 1.7-2.2-1.7zm11 0l-2.2 1.7-2.2-1.7zm-5 5l-2.2 1.7-2.2-1.7zM48.3 52.8l-2.1 1.7-2.2-1.7zm2.9 18.1l-2.1 1.7-2.2-1.7zm3.2 13.3l-2.2 1.6-2.2-1.6zm21.4 17.6h-7.6v6.9h.1c.5 1.8 3.7 3.3 7.5 3.3v-10.2z"/><path d="M75.8 80.7v-.2l-3.2 5.7h3.2z"/><path fill="#311537" d="M75.8 139l-32.2-25.4 32.2 29.1z"/><path fill="#C62527" d="M68.4 88c-.1.5-.2 1-.2 1.7 0 1.4.7 2.6 2.1 3.3 1.3.7 3.2 1 5.5 1.1v-3.2L74.2 88h-5.8z"/><path fill="#FFF" d="M72.7 88L71 90.9 69.3 88zm3.1 0v2.9L74.2 88z"/><path fill="#6F287A" d="M75.8 139V7.3h.1l10.9 7.9h15.3l4.8 14.6 11.6 8.4-4.4 13.7 4.3 13.4-11.4 8.3-4.8 14.8h-7.8l-6.3 13.4h-4.7l24.7 11.8z"/><path fill="#FFF" d="M97.4 71.8c-.2 5.1-4.3 9.2-9.3 9.2s-9.1-4.1-9.3-9.2h18.6z"/><path d="M94.6 71.8c-.4 3.3-3.1 5.9-6.5 5.9s-6.1-2.6-6.5-5.9h13z"/><path fill="#311537" d="M84.1 70.3h8c1.5 0 2.8-1.2 2.8-2.8 0-1.5-1.2-2.8-2.8-2.8h-8c-1.5 0-2.8 1.2-2.8 2.8 0 1.5 1.3 2.8 2.8 2.8zm24.3-30.5l2.2 1.7 2.2-1.7zm-12-8l2.2 1.7 2.2-1.7zm-14-10l2.2 1.7 2.2-1.7zm-1 12l2.2 1.7 2.2-1.7zm10 11l2.2 1.7 2.2-1.7zm-10 11l2.2 1.7 2.2-1.7zm4.5 52.7l2.2 1.7 2.2-1.7zm8 5l2.2 1.7 2.2-1.7zm-11 0l2.2 1.7 2.2-1.7zm5 6l2.2 1.7 2.2-1.7zm-11 0l2.2 1.7 2.2-1.7zm5 5l2.2 1.7 2.2-1.7zm21.5-71.7l2.2 1.7 2.2-1.7zm-2.9 18.1l2.2 1.7 2.2-1.7zm-3.1 13.3l2.2 1.6 2.2-1.6zm-21.6 17.6h7.6v6.9h-.1c-.5 1.8-3.7 3.3-7.5 3.3v-10.2z"/><path d="M75.8 80.7v-.2l3.3 5.7h-3.3z"/><path fill="#311537" d="M75.8 139l32.3-25.4-32.3 29.1z"/><path fill="#C62527" d="M83.2 88c.1.5.2 1 .2 1.7 0 1.4-.7 2.6-2.1 3.3-1.3.7-3.2 1-5.5 1.1v-3.2l1.7-2.9h5.7z"/><path fill="#FFF" d="M79 88l1.6 2.9 1.7-2.9zm-3.2 0v2.9l1.7-2.9z"/></svg>