<svg xmlns="http://www.w3.org/2000/svg" viewBox="0 0 625 625"><ellipse cx="312.583" cy="309.662" rx="176.57" ry="292.499" fill="#0bc0ff"/><path d="M526.152 564.824c-48.526-108.222-108.555-99.558-108.555-99.558H209.143s-4.854-.692-12.903.788c-1.34.233-2.654.527-3.954.865a71.65 71.65 0 0 0-1.987.512c-.167.05-.334.094-.5.147-21.655 6.173-57.83 27.252-89.212 97.243h99.604c1.507.14 3.027.233 4.568.233h214.253c1.542 0 3.06-.094 4.568-.233h102.57z" fill="#b16ead"/><path d="M415.406 465.266H311.18v99.79h105.643c1.542 0 3.06-.093 4.568-.232h102.57c-48.524-108.222-108.553-99.558-108.553-99.558z" fill="#7f4784"/><path d="M269.843 496.37h81.168c6.6 0 12-5.4 12-12V403.2c0-6.6-5.4-12-12-12h-81.166c-6.6 0-12 5.4-12 12v81.168c0 6.6 5.4 12 12 12z" fill="#442849"/><path d="M504.605 223.778c-1.292 0-2.54.168-3.77.38-10.822-95.595-91.92-169.89-190.408-169.89-98.395 0-179.428 74.153-190.372 169.617-.36-.017-.702-.108-1.067-.108-12.24 0-22.164 9.923-22.164 22.164 0 12.243 9.923 22.166 22.164 22.166.366 0 .706-.09 1.067-.108 10.945 95.464 91.978 169.62 190.372 169.62 98.49 0 179.586-74.296 190.407-169.892 1.23.212 2.48.38 3.77.38 12.242 0 22.165-9.923 22.165-22.164 0-12.24-9.926-22.162-22.166-22.162z" fill="#b16ead"/><path d="M506.18 223.778c-1.293 0-2.54.168-3.772.38-10.77-95.15-91.17-169.17-189.038-169.858v383.284c97.867-.688 178.268-74.71 189.038-169.86 1.23.213 2.48.38 3.77.38 12.242 0 22.165-9.922 22.165-22.163 0-12.24-9.924-22.16-22.164-22.16z" fill="#7f4784"/><circle cx="287.422" cy="203.906" r="4.747" fill="#c8c8c8"/><circle cx="287.422" cy="160.086" r="4.747" fill="#c8c8c8"/><circle cx="287.422" cy="181.996" r="4.747" fill="#c8c8c8"/><circle cx="335.624" cy="203.906" r="4.747" fill="#c8c8c8"/><circle cx="335.624" cy="160.086" r="4.747" fill="#c8c8c8"/><circle cx="335.624" cy="181.996" r="4.747" fill="#c8c8c8"/><path d="M178.932 223.778c-17.093 0-30.95 14.233-30.95 31.79s13.857 31.79 30.95 31.79v-63.58z" fill="#FFF"/><path d="M178.932 223.778c17.093 0 30.95 14.233 30.95 31.79s-13.857 31.79-30.95 31.79v-63.58z" fill="#c8c8c8"/><ellipse cx="178.932" cy="255.568" rx="21.577" ry="22.164" fill="#231f20"/><path d="M446.235 223.778c-17.093 0-30.95 14.233-30.95 31.79s13.857 31.79 30.95 31.79v-63.58z" fill="#FFF"/><path d="M446.235 223.778c17.093 0 30.95 14.233 30.95 31.79s-13.857 31.79-30.95 31.79v-63.58z" fill="#c8c8c8"/><ellipse cx="446.235" cy="255.568" rx="21.577" ry="22.164" fill="#231f20"/><g><ellipse cx="312.583" cy="295.7" rx="20.586" ry="3.88" fill="#442849"/></g><g><path d="M312.583 338.625c-16.047 0-29.308-11.776-31.71-27.15-.253 1.63-.424 3.285-.424 4.986 0 17.75 14.385 32.137 32.133 32.137s32.135-14.387 32.135-32.135c0-1.7-.172-3.356-.426-4.985-2.402 15.374-15.663 27.15-31.71 27.15z" fill="#442849"/></g></svg>