<svg xmlns="http://www.w3.org/2000/svg" viewBox="0 0 625 625"><path fill="#e8e619" d="M227.927 516.702l-119.63-119.63V227.928l119.63-119.63h169.146l119.63 119.63v169.146l-119.63 119.63z"/><path fill="#134423" d="M110.134 442.923l202.01-97.28 202.45 97.28-202.45 159.066z"/><path d="M110.134 283.417zm55.652-56.09l-55.652 56.09 72.74 72.74-88.077 71.43-.876 6.134 219.1 135.844V17.43c-159.503-5.26-147.233 209.898-147.233 209.898z" fill="#2aaf57"/><path d="M515.032 283.417zm-55.652-56.09l55.653 56.09-72.74 72.74 88.077 71.43.876 6.134-219.1 135.844V17.43C471.65 12.17 459.38 227.327 459.38 227.327zM224.505 107.7c-7.45 0-14.9-4.82-21.034-13.147 5.7 13.146 13.148 21.034 21.036 21.034 8.326 0 15.775-7.888 21.034-21.034-6.136 8.326-13.147 13.146-21.035 13.146zm51.708 60.47c-4.82 0-9.202-3.066-13.146-8.325 3.506 8.326 7.888 13.146 13.146 13.146 5.258 0 9.64-4.82 13.146-13.144-3.946 5.258-8.328 8.326-13.148 8.326zm-103.416 117c-4.82 0-9.202-3.067-13.146-8.326 3.508 8.326 7.89 13.146 13.148 13.146s9.64-4.82 13.146-13.146c-3.944 5.26-8.326 8.326-13.146 8.326zm119.19 183.168c-4.82 0-9.2-3.067-13.145-8.326 3.506 8.326 7.888 13.146 13.146 13.146s9.64-4.82 13.146-13.146c-3.506 5.26-8.326 8.326-13.146 8.326zm-88.517-253.28c-7.448 0-14.46-4.82-20.594-12.708 5.258 12.708 12.27 20.157 20.595 20.157 7.89 0 14.9-7.888 20.597-20.157-6.134 7.888-13.145 12.708-20.595 12.708zm67.484 304.988c-7.45 0-14.46-4.82-20.595-12.708 5.256 12.708 12.27 20.157 20.593 20.157 7.888 0 14.9-7.888 20.595-20.157-6.135 8.326-13.146 12.708-20.596 12.708zm-105.168-86.764c-7.45 0-14.46-4.82-20.595-12.708 5.26 12.708 12.27 20.157 20.597 20.157 7.888 0 14.9-7.886 20.595-20.155-6.572 8.326-13.583 12.708-20.594 12.708zm67.484-62.662c-7.45 0-14.462-4.82-20.596-12.71 5.258 12.71 12.27 20.158 20.595 20.158 7.886 0 14.897-7.888 20.593-20.157-6.134 8.328-13.146 12.71-20.595 12.71zm20.594-129.708c-3.506 0-6.573-2.19-9.202-5.697 2.19 5.697 5.697 9.202 9.202 9.202 3.506 0 7.01-3.506 9.202-9.202-2.63 3.506-6.134 5.697-9.202 5.697zm-26.73 224.358c-3.506 0-6.573-2.19-9.202-5.696 2.19 5.697 5.697 9.202 9.202 9.202s7.01-3.506 9.202-9.202c-3.067 3.944-6.134 5.697-9.202 5.697zm49.08-48.2c-3.507 0-6.574-2.192-9.203-5.698 2.193 5.697 5.7 9.202 9.204 9.202s7.01-3.506 9.202-9.202c-2.63 3.944-5.697 5.697-9.202 5.697zm0-344.427c-3.507 0-6.574-2.19-9.203-5.697 2.193 5.697 5.7 9.202 9.204 9.202s7.01-3.506 9.202-9.202c-2.63 3.944-5.697 5.697-9.202 5.697z" fill="#1c7139"/><path d="M224.505 107.7c-7.45 0-14.9-4.82-21.034-13.147 5.7 13.146 13.148 21.034 21.036 21.034 8.326 0 15.775-7.888 21.034-21.034-6.136 8.326-13.147 13.146-21.035 13.146zm51.708 60.47c-4.82 0-9.202-3.066-13.146-8.325 3.506 8.326 7.888 13.146 13.146 13.146 5.258 0 9.64-4.82 13.146-13.144-3.946 5.258-8.328 8.326-13.148 8.326zm-103.416 117c-4.82 0-9.202-3.067-13.146-8.326 3.508 8.326 7.89 13.146 13.148 13.146s9.64-4.82 13.146-13.146c-3.944 5.26-8.326 8.326-13.146 8.326zm119.19 183.168c-4.82 0-9.2-3.067-13.145-8.326 3.506 8.326 7.888 13.146 13.146 13.146s9.64-4.82 13.146-13.146c-3.506 5.26-8.326 8.326-13.146 8.326zm-88.517-253.28c-7.448 0-14.46-4.82-20.594-12.708 5.258 12.708 12.27 20.157 20.595 20.157 7.89 0 14.9-7.888 20.597-20.157-6.134 7.888-13.145 12.708-20.595 12.708zm67.484 304.988c-7.45 0-14.46-4.82-20.595-12.708 5.256 12.708 12.27 20.157 20.593 20.157 7.888 0 14.9-7.888 20.595-20.157-6.135 8.326-13.146 12.708-20.596 12.708zm-105.168-86.764c-7.45 0-14.46-4.82-20.595-12.708 5.26 12.708 12.27 20.157 20.597 20.157 7.888 0 14.9-7.886 20.595-20.155-6.572 8.326-13.583 12.708-20.594 12.708zm67.484-62.662c-7.45 0-14.462-4.82-20.596-12.71 5.258 12.71 12.27 20.158 20.595 20.158 7.886 0 14.897-7.888 20.593-20.157-6.134 8.328-13.146 12.71-20.595 12.71zm20.594-129.708c-3.506 0-6.573-2.19-9.202-5.697 2.19 5.697 5.697 9.202 9.202 9.202 3.506 0 7.01-3.506 9.202-9.202-2.63 3.506-6.134 5.697-9.202 5.697zm-26.73 224.358c-3.506 0-6.573-2.19-9.202-5.696 2.19 5.697 5.697 9.202 9.202 9.202s7.01-3.506 9.202-9.202c-3.067 3.944-6.134 5.697-9.202 5.697zm49.08-48.2c-3.507 0-6.574-2.192-9.203-5.698 2.193 5.697 5.7 9.202 9.204 9.202s7.01-3.506 9.202-9.202c-2.63 3.944-5.697 5.697-9.202 5.697zm0-344.427c-3.507 0-6.574-2.19-9.203-5.697 2.193 5.697 5.7 9.202 9.204 9.202s7.01-3.506 9.202-9.202c-2.63 3.944-5.697 5.697-9.202 5.697z" fill="#1c7139"/><path d="M400.224 107.7c7.45 0 14.9-4.82 21.034-13.147-5.697 13.146-13.146 21.034-21.034 21.034-8.326 0-15.775-7.888-21.034-21.034 6.135 8.326 13.146 13.146 21.034 13.146zm-51.708 60.47c4.82 0 9.202-3.066 13.146-8.325-3.506 8.326-7.888 13.146-13.146 13.146s-9.64-4.82-13.146-13.144c3.944 5.258 8.326 8.326 13.146 8.326zm103.414 117c4.82 0 9.203-3.067 13.147-8.326-3.506 8.326-7.888 13.146-13.146 13.146s-9.64-4.82-13.144-13.146c3.944 5.26 8.326 8.326 13.146 8.326zM332.74 468.338c4.82 0 9.203-3.067 13.147-8.326-3.506 8.326-7.888 13.146-13.146 13.146-5.256 0-9.64-4.82-13.144-13.146 3.505 5.26 8.325 8.326 13.146 8.326zm88.517-253.28c7.45 0 14.46-4.82 20.595-12.708-5.258 12.708-12.27 20.157-20.595 20.157-7.888 0-14.9-7.888-20.595-20.157 6.135 7.888 13.146 12.708 20.595 12.708zm-67.483 304.988c7.45 0 14.46-4.82 20.595-12.708-5.26 12.708-12.27 20.157-20.597 20.157-7.888 0-14.9-7.888-20.595-20.157 6.134 8.326 13.145 12.708 20.594 12.708zm105.168-86.764c7.45 0 14.46-4.82 20.595-12.708-5.258 12.708-12.27 20.157-20.595 20.157-7.888 0-14.9-7.886-20.595-20.155 6.573 8.326 13.584 12.708 20.595 12.708zM391.46 370.62c7.45 0 14.46-4.82 20.595-12.71-5.258 12.71-12.27 20.158-20.595 20.158-7.888 0-14.9-7.888-20.595-20.157 6.134 8.328 13.145 12.71 20.595 12.71zm-20.596-129.708c3.506 0 6.573-2.19 9.202-5.697-2.19 5.697-5.697 9.202-9.202 9.202-3.506 0-7.01-3.506-9.202-9.202 2.63 3.506 6.135 5.697 9.202 5.697zm26.73 224.358c3.506 0 6.573-2.19 9.202-5.696-2.19 5.697-5.697 9.202-9.202 9.202-3.506 0-7.01-3.506-9.202-9.202 3.068 3.944 6.135 5.697 9.202 5.697zm-49.078-48.2c3.506 0 6.573-2.192 9.202-5.698-2.19 5.697-5.697 9.202-9.202 9.202-3.506 0-7.01-3.506-9.202-9.202 2.63 3.944 5.696 5.697 9.202 5.697zm0-344.427c3.506 0 6.573-2.19 9.202-5.697-2.19 5.697-5.697 9.202-9.202 9.202-3.506 0-7.01-3.506-9.202-9.202 2.63 3.944 5.696 5.697 9.202 5.697z" fill="#134222"/><ellipse cx="302.943" cy="350.024" rx="7.011" ry="4.382"/><ellipse cx="323.1" cy="350.024" rx="7.011" ry="4.382"/><path d="M312.583 367.99h-32.427c-4.82 0-9.202 3.944-9.202 9.202 0 4.82 3.944 9.202 9.202 9.202h32.427V367.99z" fill="#bc2032"/><path d="M311.926 367.99h32.427c4.82 0 9.202 3.944 9.202 9.202 0 4.82-3.944 9.202-9.202 9.202h-32.427V367.99z" fill="#bc2032"/><path fill="#FFF" d="M298.342 367.99l-7.01 11.393-6.574-11.393zm40.752 0l-6.573 11.393-7.01-11.393zm-20.594 0l-7.012 11.393-6.573-11.393z"/><g><ellipse cx="262.628" cy="291.743" rx="37.685" ry="39" fill="#FFF"/><ellipse cx="262.628" cy="291.743" rx="26.292" ry="27.168"/><ellipse cx="362.538" cy="291.743" rx="37.685" ry="39" fill="#c9c9c9"/><ellipse transform="rotate(-87.49 362.553 291.755)" cx="362.538" cy="291.743" rx="27.168" ry="26.292"/></g></svg>