<svg xmlns="http://www.w3.org/2000/svg" viewBox="0 0 625 625"><path fill="#1c7139" d="M312.583 37.77l88.343 179.003 197.54 28.704-142.94 139.334 33.743 196.744-176.688-92.89-176.685 92.89 33.744-196.742L26.7 245.478l197.54-28.704z"/><path fill="#240d13" d="M316.45 350.364v-7.86h-7.3v7.86h-11.163l14.508 18.073 15.94-18.073z"/><path d="M471.318 381.096l-1.092-38.118-16.967-101.19 95.57-77.194.717-6.615L312.583 11.156v596.9c172.17 5.843 158.735-226.962 158.735-226.962z" fill="#7d0024"/><path d="M153.85 381.096l5.473-46.882 12.585-92.425-95.572-77.197-.717-6.615L312.58 11.158v596.9c-172.17 5.842-158.734-226.963-158.734-226.963z" fill="#ce1e48"/><path fill="#7d0024" d="M170.686 99.076L194.1 84.568l-23.414-15.94zm-65.183 41.082l23.416-14.51L105.5 109.71zM231.486 61.28l23.416-14.507-23.416-15.94z"/><path fill="#240d13" d="M453.05 99.076l-23.416-14.508 23.416-15.94zm65.182 41.082l-23.415-14.51 23.415-15.938zM392.25 61.28l-23.415-14.507 23.416-15.94zm43.82 254.817l-23.415-14.508 23.416-15.94zm-43.82 87.64l-23.415-14.508 23.416-15.94zm48.203 87.64l-23.416-14.508 23.416-15.94zm-78.877 48.203l-23.415-14.51 23.417-15.938zm58.472-299.635l-23.415-14.508 23.415-15.94zm27.73-77.775l-23.415-14.508 23.415-15.94zm-86.202-29.123L338.16 118.54l23.416-15.94z"/><path fill="#7d0024" d="M192.116 316.097l23.416-14.508-23.416-15.94zm43.82 87.64l23.416-14.508-23.416-15.94zm-48.202 87.64l23.416-14.508-23.416-15.94zm78.876 48.203l23.416-14.51-23.416-15.938zm31.377-91.224l14.508 23.416.088-23.416z"/><path fill="#240d13" d="M325.638 448.356l-14.508 23.416-.088-23.416z"/><path fill="#7d0024" d="M208.14 239.945l23.414-14.508-23.415-15.94zm-27.732-77.775l23.416-14.508-23.416-15.94zm86.202-29.123l23.416-14.508-23.416-15.94z"/><path d="M312.583 187.672c-38.18 0-69.128 31.79-69.128 71.007 0 39.214 30.95 71.005 69.128 71.005V187.672z" fill="#FFF"/><path d="M312.583 187.672c38.18 0 69.128 31.79 69.128 71.007 0 39.214-30.95 71.005-69.126 71.005V187.672z" fill="#c8c8c8"/><ellipse cx="312.583" cy="258.679" rx="48.195" ry="49.505" fill="#231f20"/><g><path d="M281.135 394.282h63.473c.48-2.11.764-4.595.764-7.565 0-6.267-3.255-11.25-9.284-14.262-5.936-3.017-14.554-4.646-25.085-4.646-10.434 0-17.902 1.674-23.168 4.547-5.266 2.826-8.04 7.086-8.04 13.07 0 3.3.572 6.317 1.34 8.854z" fill="#5c0000"/><path d="M312.583 381.958c-14.62 0-26.473 5.518-26.473 12.324h52.946c0-6.806-11.852-12.324-26.473-12.324z" fill="#ed3535"/></g></svg>