<svg xmlns="http://www.w3.org/2000/svg" viewBox="0 0 625 625"><path fill="#3e3e60" d="M576.448 38.205L312.583 495.233 48.718 38.205z"/><path fill="#5c5c91" d="M576.448 124.09L312.583 581.12 48.718 124.09z"/><path d="M521.625 485.894c-.038-70.543-38.41-173.647-92.897-242.535 1.018-6.83 1.494-13.833 1.307-20.975-1.152-43.985-25.83-81.803-61.66-101.785a65.09 65.09 0 0 0 6.886-30.95c-.944-36.108-30.982-64.613-67.09-63.667-36.11.946-64.614 30.984-63.668 67.093.26 9.94 2.79 19.265 6.98 27.596-37.703 21.08-62.74 61.826-61.532 108.004.14 5.376.668 10.65 1.49 15.82-54.734 71.736-89.716 180.112-87.823 252.35 3.024 115.43 99.04 89.17 214.48 91.84 112.758 2.604 203.603 32.183 203.53-102.792z" fill="#f59899"/><path d="M428.727 243.526c1.018-6.83 1.494-13.83 1.307-20.973-1.152-43.985-25.83-81.803-61.66-101.785a65.09 65.09 0 0 0 6.886-30.95c-.907-34.62-28.575-62.175-62.677-63.56v562.506c1.837.03 3.664.045 5.51.087 112.76 2.61 203.604 32.187 203.53-102.79-.037-70.54-38.407-173.644-92.896-242.533zm-270.222 189.98c12.837-4.883 26.735-1.685 36.186 7.04-.063-.18-.105-.364-.174-.544-6.156-16.18-24.264-24.308-40.445-18.152-16.18 6.156-24.307 24.264-18.15 40.445.067.18.157.345.23.522 1.26-12.798 9.52-24.426 22.356-29.31zm-6.475 93.87c7-2.664 14.58-.92 19.732 3.837-.035-.098-.058-.198-.096-.296-3.357-8.824-13.232-13.256-22.056-9.9-8.824 3.358-13.256 13.233-9.9 22.057.038.098.087.188.126.285.69-6.98 5.192-13.323 12.193-15.986zm90.794-143.446c7.476-.455 14.19 3.47 17.69 9.55-.004-.105.003-.207-.003-.312-.57-9.424-8.673-16.6-18.097-16.028-9.424.572-16.6 8.675-16.028 18.1.006.104.026.204.035.308 2.738-6.456 8.928-11.165 16.404-11.62zm-74.494-35.057c7.476-.454 14.19 3.472 17.69 9.55-.004-.104.003-.206-.003-.31-.572-9.425-8.675-16.6-18.1-16.03-9.423.573-16.6 8.676-16.027 18.1.006.105.026.205.035.31 2.738-6.457 8.928-11.166 16.405-11.62z" fill="#f06262"/><path d="M168.33 344.49c7.476-.453 14.19 3.473 17.69 9.55-.004-.103.003-.205-.003-.31-.572-9.424-8.675-16.6-18.1-16.028-9.423.572-16.6 8.675-16.027 18.1.006.104.026.204.035.308 2.738-6.456 8.928-11.165 16.405-11.62zm118.314-113.93c7.476-.455 14.19 3.47 17.69 9.55-.004-.105.003-.207-.003-.312-.57-9.424-8.673-16.6-18.097-16.028-9.424.572-16.6 8.675-16.028 18.1.006.104.026.204.035.308 2.738-6.457 8.928-11.165 16.404-11.62zm-2.342-85.182c3.9-1.04 7.867.316 10.366 3.152-.013-.055-.02-.11-.035-.164a9.213 9.213 0 0 0-11.275-6.53 9.213 9.213 0 0 0-6.53 11.275c.015.057.036.108.05.16.757-3.702 3.523-6.85 7.424-7.89zm-17.528-48.202c3.9-1.04 7.867.316 10.366 3.152-.014-.055-.02-.11-.035-.164a9.213 9.213 0 0 0-11.275-6.53 9.213 9.213 0 0 0-6.53 11.275c.015.053.036.104.05.16.757-3.706 3.523-6.856 7.424-7.895zm39.67-48.236c4.035-.128 7.59 2.09 9.382 5.42 0-.056.005-.11.003-.168a9.212 9.212 0 0 0-9.503-8.916 9.212 9.212 0 0 0-8.916 9.5c.003.057.01.112.015.168 1.575-3.436 4.983-5.876 9.018-6.004zm-81.816 151.11c6.825-3.084 14.497-1.804 19.93 2.63-.04-.095-.07-.193-.114-.29-3.887-8.603-14.013-12.426-22.617-8.54-8.604 3.888-12.427 14.014-8.54 22.618.043.096.098.182.142.277.262-7.008 4.37-13.61 11.197-16.695z" fill="#f06262"/><path d="M468.116 433.507c-12.837-4.884-26.735-1.686-36.186 7.038.065-.18.107-.363.176-.543 6.156-16.18 24.264-24.308 40.445-18.152 16.183 6.156 24.31 24.264 18.154 40.445-.068.18-.158.345-.23.522-1.262-12.798-9.52-24.426-22.357-29.31zm6.477 93.868c-7-2.663-14.58-.92-19.733 3.838.035-.098.058-.198.096-.296 3.357-8.824 13.232-13.256 22.056-9.9 8.824 3.358 13.256 13.233 9.9 22.057-.038.098-.087.188-.126.285-.69-6.98-5.193-13.323-12.193-15.986zM383.797 383.93c-7.476-.455-14.19 3.47-17.69 9.55.004-.105-.003-.207.003-.312.572-9.424 8.675-16.6 18.1-16.028 9.423.572 16.6 8.675 16.027 18.1-.006.104-.026.204-.035.308-2.74-6.456-8.93-11.165-16.405-11.62zm74.493-35.057c-7.475-.454-14.19 3.472-17.69 9.55.005-.104-.002-.206.004-.31.572-9.425 8.675-16.6 18.1-16.03 9.423.573 16.598 8.676 16.027 18.1-.004.105-.024.205-.033.31-2.738-6.457-8.928-11.166-16.405-11.62z" fill="#954040"/><path d="M458.29 344.49c-7.475-.453-14.19 3.473-17.69 9.55.005-.103-.002-.205.004-.31.572-9.424 8.675-16.6 18.1-16.028 9.423.572 16.598 8.675 16.027 18.1-.004.104-.024.204-.033.308-2.738-6.456-8.928-11.165-16.405-11.62zM339.977 230.56c-7.476-.455-14.19 3.47-17.69 9.55.004-.105-.003-.207.003-.312.572-9.424 8.675-16.6 18.1-16.028 9.423.572 16.6 8.675 16.027 18.1-.006.104-.026.204-.035.308-2.74-6.457-8.93-11.165-16.405-11.62zm2.343-85.182c-3.902-1.04-7.868.316-10.367 3.152.013-.055.02-.11.035-.164a9.213 9.213 0 0 1 11.275-6.53 9.213 9.213 0 0 1 6.53 11.275c-.015.057-.036.108-.05.16-.757-3.702-3.523-6.85-7.424-7.89zm17.527-48.202c-3.9-1.04-7.867.316-10.366 3.152.015-.055.02-.11.037-.164a9.213 9.213 0 0 1 11.275-6.53 9.213 9.213 0 0 1 6.53 11.275c-.014.053-.035.104-.05.16-.756-3.706-3.522-6.856-7.423-7.895zm42.146 102.874c-6.825-3.084-14.497-1.804-19.93 2.63.04-.095.07-.193.114-.29 3.887-8.603 14.013-12.426 22.617-8.54 8.604 3.888 12.427 14.014 8.54 22.618-.043.096-.098.182-.142.277-.264-7.008-4.373-13.61-11.2-16.695zM313.21 461.633c17.474.242 32.47 10.375 39.805 24.983.17-1.512.277-3.043.277-4.6 0-22.484-18.226-40.71-40.708-40.71" fill="#954040"/><path d="M312.584 441.29c-22.483 0-40.71 18.225-40.71 40.708 0 1.57.11 3.112.283 4.635 7.53-15.022 23.123-25.265 41.053-25.017" fill="#f06262"/><path d="M240.28 286.75c15.832 0 29.424 9.512 35.426 23.124A38.553 38.553 0 0 0 279 294.278c0-21.385-17.335-38.72-38.72-38.72s-38.72 17.335-38.72 38.72c0 5.553 1.19 10.82 3.294 15.596 6.003-13.61 19.594-23.125 35.426-23.125z" fill="#FFF"/><ellipse cx="240.28" cy="269.806" rx="13.872" ry="14.249" fill="#231f20"/><path d="M384.886 286.75c15.832 0 29.424 9.512 35.426 23.124a38.553 38.553 0 0 0 3.295-15.596c0-21.385-17.336-38.72-38.72-38.72s-38.722 17.335-38.722 38.72c0 5.553 1.19 10.82 3.295 15.596 6.003-13.61 19.595-23.125 35.426-23.125z" fill="#FFF"/><ellipse cx="384.886" cy="269.806" rx="13.872" ry="14.249" fill="#231f20"/><g><circle cx="312.583" cy="360.321" r="16.98" fill="#231f20"/><path d="M297.76 368.446c2.887 5.253 8.406 8.855 14.823 8.855 6.418 0 11.936-3.6 14.824-8.853-2.88-5.24-8.38-8.84-14.784-8.855-6.432-.013-11.97 3.592-14.863 8.856z" fill="#ed3535"/></g><g><circle cx="312.583" cy="325.14" r="15.128" fill="#932222"/><ellipse cx="304.184" cy="326.518" rx="3.049" ry="7.037" fill="#280e0e"/><ellipse cx="320.982" cy="326.518" rx="3.049" ry="7.037" fill="#280e0e"/></g></svg>