<svg xmlns="http://www.w3.org/2000/svg" viewBox="0 0 625 625"><path fill="#3781c3" d="M174.55 522.19L89.1 259.706l223.484-162.57 223.483 162.57-85.45 262.483z"/><path fill="#9c54a1" d="M312.583 590.55V13L264.38 47.618h-67.044l-21.033 63.977-50.83 37.247 19.28 59.596-18.843 59.157 49.955 36.37 21.033 64.416h34.18l27.607 58.72h20.595l-108.236 52.147z"/><path fill="#311537" d="M170.168 155.854l-9.64 7.45-9.203-7.45zm52.584-35.057l-9.64 7.45-9.203-7.45zm61.348-43.82l-9.64 7.45-9.202-7.45zm4.382 52.583l-9.64 7.45-9.202-7.45zm-43.82 48.204l-9.64 7.45-9.202-7.45zm43.82 48.202l-9.64 7.45-9.202-7.45zM269.2 456.46l-9.64 7.45-9.64-7.45zm-35.055 21.91l-9.64 7.45-9.64-7.45zm48.202 0l-9.64 7.45-9.64-7.45zm-21.91 26.29l-9.64 7.45-9.64-7.45zm48.203 0l-9.64 7.45-9.64-7.45zm-21.91 21.91l-9.64 7.45-9.64-7.45zm-94.652-313.75l-9.64 7.45-9.203-7.45zm12.708 79.314l-9.64 7.45-9.203-7.45zm13.584 57.843l-9.202 7.45-9.64-7.45zm94.213 77.123H279.28v30.236h.438c2.19 7.888 16.213 14.46 32.865 14.46V427.1zm0 163.01l-141.1-110.864 141.1 127.078z"/><path fill="#6f287a" d="M312.583 590.55V13l48.202 34.618h67.045l21.034 63.977 50.83 37.247-19.28 59.596 18.843 59.157-49.955 36.37-21.034 64.416h-34.18l-27.606 58.72h-20.595l108.235 52.147z"/><path fill="#311537" d="M455.437 155.854l9.64 7.45 9.64-7.45zm-52.584-35.057l9.64 7.45 9.64-7.45zm-61.348-43.82l9.64 7.45 9.64-7.45zm-4.382 52.583l9.64 7.45 9.64-7.45zm43.82 48.204l9.64 7.45 9.64-7.45zm-43.82 48.202l9.64 7.45 9.64-7.45zm19.72 230.494l9.64 7.45 9.64-7.45zm35.055 21.91l9.64 7.45 9.64-7.45zm-48.202 0l9.64 7.45 9.64-7.45zm21.91 26.29l9.64 7.45 9.64-7.45zm-48.202 0l9.64 7.45 9.64-7.45zm21.91 21.91l9.64 7.45 9.64-7.45zm94.213-313.75l9.64 7.45 9.64-7.45zm-12.707 79.314l9.64 7.45 9.64-7.45zm-13.585 57.843l9.64 7.45 9.64-7.45zM312.583 427.1h33.303v30.236h-.438c-2.19 7.888-16.213 14.46-32.865 14.46V427.1zm0 163.01l141.1-110.864-141.1 127.078z"/><path d="M312.364 335.078v-1.315l-14.022 24.978h14.022zm0 0v-1.315l14.46 24.978h-14.46z"/><path d="M280.156 384.594c-.438 2.19-.876 4.382-.876 7.45 0 6.134 3.067 11.392 9.202 14.46 5.697 3.067 14.022 4.382 24.1 4.82v-14.022l-7.448-12.708h-24.978z" fill="#c62527"/><path fill="#FFF" d="M298.56 384.594l-7.01 12.27-7.45-12.27zm14.023 0v12.27l-7.01-12.27z"/><path d="M345.01 384.594c.438 2.19.876 4.382.876 7.45 0 6.134-3.067 11.392-9.202 14.46-5.697 3.067-14.022 4.382-24.1 4.82v-14.022l7.448-12.708h24.978z" fill="#c62527"/><path fill="#FFF" d="M326.606 384.594l7.01 12.27 7.45-12.27zm-14.023 0v12.27l7.45-12.27z"/><g><path d="M218.37 295.64c.876 22.348 18.843 40.314 40.753 40.314S299 317.988 299.876 295.64H218.37z" fill="#FFF"/><path d="M231.078 295.64c1.753 14.46 13.584 25.854 28.483 25.854s26.73-11.393 28.485-25.854H231.08z"/><path d="M277.09 289.067h-35.057c-6.573 0-11.83-5.258-11.83-12.27 0-6.573 5.257-12.27 11.83-12.27h35.056c6.57 0 12.27 5.258 12.27 12.27-.44 7.01-5.7 12.27-12.27 12.27z" fill="#311537"/><path d="M407.235 295.64c-.876 22.348-18.843 40.314-40.753 40.314s-39.876-17.966-40.753-40.314h81.504z" fill="#FFF"/><path d="M394.527 295.64c-1.753 14.46-13.584 25.854-28.483 25.854-14.9 0-26.73-11.393-28.483-25.854h56.968z"/><path d="M348.954 289.067h35.056c6.573 0 12.27-5.258 12.27-12.27 0-6.573-5.258-12.27-12.27-12.27h-35.056c-6.573 0-12.27 5.258-12.27 12.27 0 7.01 5.26 12.27 12.27 12.27z" fill="#311537"/></g></svg>