<svg xmlns="http://www.w3.org/2000/svg" viewBox="0 0 625 625"><circle cx="312.583" cy="309.662" r="271.685" fill="#D00"/><path d="M516.614 394.763c0-41.895-12.647-80.83-34.307-113.226l18.06-31.28-93.877-162.59H218.745l-93.873 162.592 18.058 31.28c-21.66 32.394-34.307 71.33-34.307 113.224 0 52.632 19.94 73.596 52.668 81.004 10.668 73.977 74.296 130.83 151.227 130.83 76.912 0 140.528-56.825 151.217-130.775 32.857-7.364 52.88-28.31 52.88-81.06z" fill="#5bc4c2"/><path d="M482.307 281.117l18.06-31.28-93.875-162.59h-93.874v518.93c76.865-.052 140.43-56.856 151.114-130.774 32.857-7.364 52.88-28.31 52.88-81.06.002-41.895-12.645-80.83-34.305-113.226z" fill="#448c87"/><path d="M218.745 87.666S115.873 65.31 116.968 12.726c0 0-61.973 83.97 7.904 237.533l93.873-162.595zm187.675 0S509.294 65.31 508.2 12.726c0 0 61.973 83.97-7.904 237.533L406.42 87.664z" fill="#f5ec52"/><ellipse cx="271.079" cy="297.192" rx="31.426" ry="32.28" fill="#FFF"/><ellipse cx="271.079" cy="297.192" rx="21.891" ry="22.486" fill="#231f20"/><ellipse cx="312.583" cy="243.092" rx="21.243" ry="21.82" fill="#c8c8c8"/><ellipse cx="312.583" cy="243.092" rx="14.797" ry="15.2" fill="#231f20"/><ellipse cx="354.088" cy="297.192" rx="31.426" ry="32.28" fill="#c8c8c8"/><ellipse cx="354.088" cy="297.192" rx="21.891" ry="22.486" fill="#231f20"/><g><path d="M385.662 396.153s-62.99-.365-72.93-37.612h-.297c-9.94 37.25-72.93 37.614-72.93 37.614" fill="#3f656c"/></g><g><ellipse cx="312.583" cy="351.284" rx="23.927" ry="5.905" fill="#0c0f1c"/></g></svg>