<svg xmlns="http://www.w3.org/2000/svg" viewBox="0 0 625 625"><path d="M312.583 46.01c-145.61 0-263.65 118.04-263.65 263.652s118.04 263.65 263.65 263.65 263.65-118.04 263.65-263.65-118.04-263.65-263.65-263.65zm0 459.23c-108.014 0-195.577-87.564-195.577-195.578s87.563-195.577 195.577-195.577S508.16 201.648 508.16 309.662 420.597 505.24 312.583 505.24z" fill="#5c5c91"/><path fill="#8989db" d="M280.45 0h64.268v625.167h-64.27z"/><path fill="#8989db" d="M0 280.45h625.167v64.268H0z"/><path d="M155.064 420.544c-9.122 11.904-14.744 27.494-14.047 48.013-1.65 48.597 31.915 69.78 64.327 78.956L233.18 582.9l8.427 13.6 3.57-.387 26.915-33.32 24.2 24.202 16.525-16.524 16.524 16.526 24.203-24.202 26.914 33.32 3.572.387 7.275-11.742 29.39-37.363c32.287-9.237 65.566-30.442 63.923-78.837.7-20.623-4.98-36.268-14.185-48.195 26.814-14.525 48.207-39.423 46.758-82.125 1.714-50.483-28.48-76.117-61.84-89.097 9.996-20.716 15.6-43.95 15.6-68.492 0-87.164-70.66-157.824-157.825-157.824S155.3 93.484 155.3 180.648c0 24.41 5.548 47.523 15.442 68.156-33.722 12.864-64.494 38.486-62.765 89.434-1.455 42.876 20.12 67.805 47.087 82.306z" fill="#e61856"/><path d="M516.684 338.238c1.713-50.483-28.48-76.117-61.84-89.097 9.995-20.715 15.598-43.95 15.598-68.49 0-86.548-69.673-156.788-155.985-157.778V572.62l14.378 14.377 24.2-24.202 26.915 33.32 3.572.387 7.276-11.743 29.39-37.364c32.287-9.237 65.566-30.442 63.923-78.837.7-20.624-4.98-36.27-14.183-48.196 26.814-14.525 48.208-39.423 46.758-82.124z" fill="#83173c"/><path d="M217.29 134.512c0 11.167 9.036 20.204 20.204 20.204m3.593 11.506c-10.38-4.116-22.112.953-26.228 11.334m-11.57-1.203c10.523-10.028 10.923-26.657.895-37.18" fill="none" stroke="#6d0c2c" stroke-miterlimit="10"/><path d="M401.495 221.986c0 7.8 6.31 14.11 14.11 14.11m2.51 8.038c-7.25-2.875-15.444.665-18.32 7.916m-8.08-.84c7.35-7.004 7.63-18.618.626-25.968" fill="none" stroke="#461023" stroke-miterlimit="10"/><path d="M182.394 349.065c0 7.8 6.31 14.11 14.11 14.11m2.51 8.037c-7.25-2.875-15.443.665-18.32 7.916m-8.078-.84c7.35-7.004 7.63-18.618.625-25.968" fill="none" stroke="#6d0c2c" stroke-miterlimit="10"/><path d="M427.787 401.65c0 7.8 6.31 14.11 14.11 14.11m2.51 8.036c-7.25-2.875-15.444.665-18.32 7.916m-8.08-.84c7.35-7.004 7.63-18.618.626-25.968" fill="none" stroke="#461023" stroke-miterlimit="10"/><path d="M260.718 481.57c0 14.35 11.61 25.962 25.96 25.962m4.617 14.785c-13.34-5.29-28.413 1.224-33.702 14.563m-14.865-1.546c13.52-12.886 14.035-34.253 1.15-47.774" fill="none" stroke="#6d0c2c" stroke-miterlimit="10"/><ellipse cx="222.752" cy="315.965" rx="24.101" ry="7.778" fill="#FFF"/><path d="M227.988 308.377c-1.895 1.972-3.074 4.638-3.074 7.588s1.18 5.617 3.074 7.588c10.79-.772 18.865-3.874 18.865-7.588 0-3.715-8.075-6.816-18.865-7.588z"/><ellipse cx="402.414" cy="315.965" rx="24.101" ry="7.778" fill="#FFF"/><path d="M407.65 308.377c-1.894 1.972-3.073 4.638-3.073 7.588s1.18 5.617 3.074 7.588c10.79-.772 18.867-3.874 18.867-7.588 0-3.715-8.075-6.816-18.865-7.588zm-169.376 1.878L214.71 286.69a1.692 1.692 0 0 1 0-2.385l8.07-8.07a1.692 1.692 0 0 1 2.387 0l23.564 23.563a1.69 1.69 0 0 1 0 2.386l-8.07 8.07a1.69 1.69 0 0 1-2.385 0zm148.618 0l23.564-23.564a1.692 1.692 0 0 0 0-2.384l-8.07-8.07a1.694 1.694 0 0 0-2.388 0L376.434 299.8a1.692 1.692 0 0 0 0 2.385l8.07 8.07a1.69 1.69 0 0 0 2.388 0z"/><g><path d="M305.27 335.412a10.334 10.334 0 0 0 14.625 0" fill="none" stroke="#000" stroke-miterlimit="10"/></g><g><path d="M290.893 362.784c11.99-11.99 31.39-11.99 43.38 0" fill="none" stroke="#231f20" stroke-miterlimit="10"/></g></svg>