<svg xmlns="http://www.w3.org/2000/svg" viewBox="0 0 625 625"><path fill="#0bc0ff" d="M312.583 40.04l21.09 136.47L395.9 53.238l-22.114 136.308 97.276-98.01-63.153 122.802 122.8-63.154-98.01 97.276 136.307-22.115-123.274 62.228 136.47 21.09-136.47 21.088 123.274 62.23L432.7 370.865l98.01 97.276-122.8-63.153 63.15 122.803-97.276-98.01L395.9 566.086l-62.228-123.274-21.09 136.47-21.088-136.47-62.228 123.274L251.38 429.78l-97.276 98.01 63.154-122.803L94.455 468.14l98.01-97.275L56.16 392.98l123.273-62.23-136.47-21.088 136.47-21.09L56.16 226.346l136.306 22.114-98.01-97.277 122.802 63.154-63.154-122.803 97.277 98.01-22.113-136.307 62.228 123.274z"/><path d="M523.233 331.58a215.164 215.164 0 0 0 4.28-42.757c0-118.29-95.894-214.182-214.184-214.182S99.144 170.535 99.144 288.825c0 13.75 1.347 27.176 3.823 40.204l-.05-.045s-114.21 99.373 0 213.583c0 0-25.52-92.49 33.078-133.607a215.364 215.364 0 0 0 56.648 56.806c-9.066 19.462-12.29 48.075 18.554 78.92 0 0-11.14-40.273 11.646-61.726 27.492 12.835 58.14 20.046 90.482 20.046s62.99-7.21 90.482-20.047c22.786 21.45 11.646 61.723 11.646 61.723 30.844-30.844 27.62-59.457 18.554-78.92a215.35 215.35 0 0 0 55.55-55.26c55.81 41.847 30.895 132.062 30.895 132.062 103.413-103.412 19.56-194.656 2.778-210.987z" fill="#85c340"/><path d="M525.02 331.58a215.164 215.164 0 0 0 4.28-42.757c0-118.29-95.893-214.182-214.183-214.182-.55 0-1.09.04-1.64.043V502.96c.55.004 1.09.045 1.64.045 32.344 0 62.99-7.21 90.482-20.047 22.784 21.453 11.644 61.725 11.644 61.725 30.844-30.844 27.62-59.457 18.554-78.92a215.35 215.35 0 0 0 55.55-55.26c55.808 41.847 30.894 132.062 30.894 132.062 103.412-103.41 19.56-194.655 2.777-210.986z" fill="#5d823a"/><ellipse transform="rotate(-86.526 97.072 496.532)" cx="97.07" cy="496.546" rx="6.857" ry="2.968" fill="#c08386"/><ellipse transform="rotate(-78.744 100.062 466.89)" cx="100.061" cy="466.903" rx="6.857" ry="2.968" fill="#c08386"/><ellipse transform="rotate(-70.378 109.65 440.403)" cx="109.656" cy="440.397" rx="6.857" ry="2.968" fill="#c08386"/><ellipse transform="rotate(-86.526 208.66 524.54)" cx="208.661" cy="524.556" rx="4.133" ry="1.789" fill="#c08386"/><ellipse transform="rotate(-78.744 210.462 506.675)" cx="210.464" cy="506.69" rx="4.133" ry="1.789" fill="#c08386"/><ellipse transform="rotate(-70.378 216.24 490.723)" cx="216.246" cy="490.715" rx="4.133" ry="1.789" fill="#c08386"/><ellipse transform="rotate(-93.474 528.872 498.87)" cx="528.902" cy="498.888" rx="6.857" ry="2.968" fill="#c08386"/><ellipse transform="rotate(-101.256 525.885 469.23)" cx="525.911" cy="469.245" rx="6.857" ry="2.968" fill="#c08386"/><ellipse transform="rotate(-109.622 516.344 442.75)" cx="516.316" cy="442.739" rx="6.857" ry="2.968" fill="#c08386"/><ellipse transform="rotate(-93.474 419.326 528.917)" cx="419.351" cy="528.938" rx="4.133" ry="1.789" fill="#c08386"/><ellipse transform="rotate(-101.256 417.526 511.054)" cx="417.548" cy="511.072" rx="4.133" ry="1.789" fill="#c08386"/><ellipse transform="rotate(-109.622 411.79 495.112)" cx="411.766" cy="495.097" rx="4.133" ry="1.789" fill="#c08386"/><path d="M317.837 321.2h-10.52a1.56 1.56 0 0 1-1.555-1.554v-18.8c0-.854.7-1.554 1.555-1.554h10.52c.855 0 1.555.7 1.555 1.555v18.8c0 .854-.7 1.554-1.555 1.554z" fill="#5e3f17"/><path d="M306.046 315.723c.627 3.113 3.39 5.478 6.68 5.478 3.29 0 6.053-2.362 6.68-5.476-.627-3.113-3.39-5.477-6.68-5.477-3.29 0-6.054 2.364-6.68 5.477z" fill="#ee4041"/><path d="M312.732 149.958c-17.093 0-30.95 14.233-30.95 31.79s13.857 31.79 30.95 31.79v-63.58z" fill="#FFF"/><path d="M312.732 149.958c17.093 0 30.95 14.233 30.95 31.79s-13.857 31.79-30.95 31.79v-63.58z" fill="#c8c8c8"/><ellipse cx="312.732" cy="181.748" rx="21.577" ry="22.164" fill="#231f20"/><path d="M407.8 193.778c-17.094 0-30.95 14.233-30.95 31.79s13.856 31.79 30.95 31.79v-63.58z" fill="#FFF"/><path d="M407.8 193.778c17.092 0 30.948 14.233 30.948 31.79s-13.856 31.79-30.95 31.79v-63.58z" fill="#c8c8c8"/><ellipse cx="407.799" cy="225.568" rx="21.577" ry="22.164" fill="#231f20"/><path d="M217.367 193.778c-17.093 0-30.95 14.233-30.95 31.79s13.857 31.79 30.95 31.79v-63.58z" fill="#FFF"/><path d="M217.367 193.778c17.093 0 30.95 14.233 30.95 31.79s-13.857 31.79-30.95 31.79v-63.58z" fill="#c8c8c8"/><ellipse cx="217.367" cy="225.568" rx="21.577" ry="22.164" fill="#231f20"/><path d="M332.494 137.453c-11.27 12.668-30.638 13.8-43.306 2.53m140.264 40.477c-11.27 12.668-30.638 13.8-43.306 2.53m-147.126-2.53c-11.27 12.668-30.638 13.8-43.306 2.53" fill="none" stroke="#231f20" stroke-width="4" stroke-linecap="round" stroke-miterlimit="10"/><g><path d="M295.768 267.637c-4.883-.62-6.28 1.337-7.21 3.687-.14.354-.384 2.8-.384 3.177 0 6.73-8.58 10.157-19.53 10.157-9.117 0-16.777-3.788-19.09-8.94-.542 1.33-.86 2.715-.86 4.148 0 9.418 12.424 17.053 27.75 17.053s27.75-7.635 27.75-17.053c.002-4.8-2.027-11.415-8.426-12.227zm34.384 0c4.883-.62 6.28 1.337 7.21 3.687.14.354.384 2.8.384 3.177 0 6.73 8.58 10.157 19.53 10.157 9.117 0 16.777-3.788 19.09-8.94.542 1.33.86 2.715.86 4.148 0 9.418-12.424 17.053-27.75 17.053-15.327 0-27.75-7.635-27.75-17.053-.002-4.8 2.027-11.415 8.426-12.227z"/><ellipse cx="145.245" cy="278.664" rx="25.744" ry="11.142" fill="#c08386"/><ellipse cx="479.921" cy="278.664" rx="25.744" ry="11.142" fill="#c08386"/></g></svg>