<svg xmlns="http://www.w3.org/2000/svg" viewBox="0 0 625 625"><path d="M542.15 169.438V132.68c0-28.92-23.664-52.584-52.585-52.584H135.602c-28.92 0-52.584 23.663-52.584 52.584v36.757h459.13zm-459.132 140.6H542.15v44.295H83.018zm.722 184.895c4.015 25.01 25.766 44.295 51.86 44.295h353.964c26.095 0 47.847-19.285 51.86-44.295H83.74z" fill="#8989db"/><path d="M107.61 226.543c0 41.895 100.286 124.65 121.946 157.046l-88.17-12.544L217.73 533.64h187.747l76.345-162.593-88.17 12.542c21.66-32.398 121.946-115.15 121.946-157.048 0-52.632-19.94-73.596-52.668-81.004C452.264 71.56 388.636 14.71 311.705 14.71c-76.912 0-140.528 56.824-151.217 130.774-32.856 7.364-52.88 28.31-52.88 81.06z" fill="#85c340"/><path d="M395.61 384.01l88.172-12.543-76.345 162.593h-93.874V15.13c76.865.052 140.43 56.856 151.114 130.774 32.857 7.364 52.88 28.31 52.88 81.06 0 41.895-100.286 124.648-121.946 157.045zm-166.054-.42l83.34 83.34v124.097l-82.02-21.91-89.49-198.07z" fill="#6e9b40"/><path fill="#4f6c31" d="M396.83 383.59l-83.342 83.34v124.097l82.02-21.91 89.49-198.07z"/><path fill="#27331a" d="M141.385 371.048l76.99 211.106 95.188 22.46-.075-13.587-82.612-21.91z"/><path fill="#27331a" d="M484.46 371.048l-76.99 211.106-95.187 22.46.075-13.587 82.612-21.91z"/><ellipse transform="rotate(-24.715 216.185 272.793)" cx="216.164" cy="272.776" rx="26.214" ry="36.14"/><ellipse transform="rotate(-24.715 222.897 265.243)" cx="222.877" cy="265.227" rx="8.459" ry="19.355" fill="#FFF"/><ellipse transform="rotate(-24.715 264.716 315.043)" cx="264.692" cy="315.023" rx="17.532" ry="24.17"/><ellipse transform="rotate(-24.715 268.59 310.586)" cx="268.565" cy="310.567" rx="6.34" ry="10.94" fill="#FFF"/><ellipse transform="rotate(-155.285 408.996 272.78)" cx="409.002" cy="272.776" rx="26.214" ry="36.14"/><ellipse transform="rotate(-155.285 360.468 315.028)" cx="360.474" cy="315.023" rx="17.532" ry="24.17"/><ellipse transform="rotate(-155.285 400.274 265.232)" cx="400.28" cy="265.227" rx="8.459" ry="19.355" fill="#FFF"/><ellipse transform="rotate(-155.285 354.586 310.572)" cx="354.592" cy="310.567" rx="6.34" ry="10.94" fill="#FFF"/><g><path d="M337.065 397.682c0 9.142-19.137 43.7-9.995 43.7 9.142 0 43.1-34.558 43.1-43.7 0-9.142-7.41-16.552-16.552-16.552s-16.553 7.41-16.553 16.552zm-48.963 0c0 9.142 19.137 43.7 9.995 43.7-9.142 0-43.1-34.558-43.1-43.7 0-9.142 7.41-16.552 16.552-16.552 9.14 0 16.55 7.41 16.55 16.552z" fill="#f5ec52"/></g><g><path d="M304.49 367.868h-4.23a.627.627 0 0 1-.624-.625v-5.323c0-.344.28-.625.625-.625h4.23c.344 0 .625.28.625.625v5.323c0 .343-.28.625-.625.625zm21.195 0h-4.228a.627.627 0 0 1-.625-.625v-5.323c0-.344.28-.625.625-.625h4.228c.344 0 .625.28.625.625v5.323c0 .343-.28.625-.625.625zm13.462-7.438h-4.228a.627.627 0 0 1-.627-.624v-5.323c0-.344.28-.625.625-.625h4.227c.344 0 .625.28.625.625v5.323a.627.627 0 0 1-.625.625zm-48.9 0h-4.227a.627.627 0 0 1-.625-.624v-5.323c0-.344.28-.625.625-.625h4.228c.344 0 .625.28.625.625v5.323a.627.627 0 0 1-.625.625z" fill="#1c2414"/></g></svg>