<svg xmlns="http://www.w3.org/2000/svg" viewBox="0 0 625 625"><path d="M540.037 104.946c0-55.032-45.027-100.06-100.06-100.06H185.19c-55.033 0-100.06 45.028-100.06 100.06v254.79c0 3.716.243 7.377.643 10.992-.38 5.375-.643 10.783-.643 16.255 0 125.62 101.835 227.453 227.454 227.453s227.454-101.834 227.454-227.453c0-5.472-.262-10.88-.643-16.255.4-3.615.643-7.276.643-10.993v-254.79zm-39.234 246.152c0 3.076-.2 6.105-.532 9.097.317 4.448.534 8.923.534 13.452 0 103.95-84.27 188.22-188.22 188.22s-188.22-84.27-188.22-188.22c0-4.53.217-9.004.532-13.452-.33-2.992-.532-6.02-.532-9.097v-210.84c0-45.54 37.26-82.8 82.8-82.8h210.84c45.54 0 82.8 37.26 82.8 82.8v210.84z" fill="#3e3e60"/><path d="M469.973 238.228l-1.092 38.118-16.965 101.19 95.572 77.194.717 6.615L311.24 608.167v-596.9c172.17-5.844 158.733 226.96 158.733 226.96z" fill="#a49032"/><path d="M155.193 238.228l5.474 46.882 12.585 92.425L77.68 454.73l-.717 6.615 236.964 146.82v-596.9C141.757 5.425 155.193 238.23 155.193 238.23z" fill="#ffe920"/><path fill="#c4b02f" d="M169.34 520.248l23.417 14.508-23.416 15.94zm-65.18-41.082l23.414 14.51-23.415 15.938zm125.98 78.877l23.417 14.508-23.416 15.94z"/><path fill="#7f702c" d="M451.705 520.248l-23.415 14.508 23.415 15.94zm65.183-41.082l-23.416 14.51 23.416 15.938zm-125.982 78.877L367.49 572.55l23.416 15.94z"/><circle cx="155.278" cy="273.569" r="11.541" fill="#ffe920"/><circle cx="155.278" cy="172.783" r="11.541" fill="#ffe920"/><circle cx="466.401" cy="172.783" r="11.541" fill="#a49032"/><circle cx="207.862" cy="54.468" r="11.541" fill="#ffe920"/><circle cx="218.6" cy="130.509" r="11.541" fill="#dfc722"/><circle cx="281.96" cy="67.15" r="11.541" fill="#dfc722"/><circle cx="292.36" cy="224.881" r="11.541" fill="#dfc722"/><circle cx="230.147" cy="365.966" r="11.541" fill="#dfc722"/><circle cx="219.404" cy="509.614" r="11.541" fill="#dfc722"/><circle cx="284.216" cy="454.778" r="11.541" fill="#dfc722"/><circle cx="151.271" cy="431.696" r="11.541" fill="#dfc722"/><circle cx="409.075" cy="130.509" r="11.541" fill="#7f702c"/><circle cx="345.716" cy="67.15" r="11.541" fill="#7f702c"/><circle cx="335.315" cy="224.881" r="11.541" fill="#7f702c"/><circle cx="397.529" cy="365.966" r="11.541" fill="#7f702c"/><circle cx="408.272" cy="509.614" r="11.541" fill="#7f702c"/><circle cx="343.459" cy="454.778" r="11.541" fill="#7f702c"/><circle cx="476.405" cy="431.696" r="11.541" fill="#7f702c"/><circle cx="418.199" cy="54.468" r="11.541" fill="#a49032"/><circle cx="466.401" cy="273.569" r="11.541" fill="#a49032"/><path d="M347.78 384.36h-70.392a2.425 2.425 0 0 1-2.417-2.418v-16.346a2.424 2.424 0 0 1 2.42-2.417h70.39a2.424 2.424 0 0 1 2.417 2.415v16.346a2.425 2.425 0 0 1-2.417 2.418z" fill="#FFF"/><path fill="none" stroke="#231f20" stroke-width=".4" stroke-miterlimit="10" d="M285.56 363.18v20.515m8.145-20.515v20.515m9.86-20.515v20.515m17.052-20.515v20.515m-8.034-20.515v20.515m16.177-20.515v20.515m9.86-20.515v20.515"/><ellipse cx="218.749" cy="289.124" rx="37.87" ry="38.899" fill="#FFF"/><ellipse cx="218.749" cy="289.124" rx="26.38" ry="27.097" fill="#231f20"/><ellipse cx="406.418" cy="289.124" rx="37.87" ry="38.899" fill="#c8c8c8"/><ellipse cx="406.418" cy="289.124" rx="26.38" ry="27.097" fill="#231f20"/><path d="M197.686 233.91c11.99-11.99 31.39-11.99 43.38 0m145.084 1.265c11.268-12.668 30.637-13.8 43.305-2.53" fill="none" stroke="#231f20" stroke-miterlimit="10"/><g><path d="M320.8 335.72c.025-.58.043-1.162.043-1.755 0-10.76-4.107-19.483-9.173-19.483s-9.173 8.723-9.173 19.483c0 .925.04 1.828.1 2.72-3.426 2.11-5.65 5.24-5.65 8.783 0 6.353 7 11.503 15.637 11.503s15.638-5.15 15.638-11.5c0-4.13-2.98-7.72-7.42-9.75z" fill="#240d13"/></g></svg>