<svg xmlns="http://www.w3.org/2000/svg" viewBox="0 0 150 150"><path fill="#AA8B3C" d="M61.4 71.2h28.1v50.6H61.4z"/><path fill="#82692F" d="M72 71h18v52H72z"/><path fill="#896E31" d="M113.9 62c8.6 2.5 17.7-2.4 20.3-11s-2.4-17.7-11-20.3c-3.2-.9-6.5-.9-9.4.1 5.1-3.5 11.6-4.7 17.9-2.8 11.2 3.3 17.6 15 14.3 26.2s-15 17.6-26.2 14.3c-5.8-1.7-10.3-5.7-12.9-10.8 1.8 1.9 4.2 3.4 7 4.3z"/><path fill="#AA8B3C" d="M36.1 62c-8.6 2.5-17.7-2.4-20.3-11s2.4-17.7 11-20.3c3.2-.9 6.5-.9 9.4.1-5.1-3.5-11.6-4.7-17.9-2.8C7.2 31.2.8 42.9 4.1 54.1s15 17.6 26.2 14.3c5.8-1.7 10.3-5.7 12.9-10.8-1.9 2-4.3 3.5-7.1 4.4z"/><path fill="#F7CC54" d="M27.9 15c-2.6 7-4 12.3-4 19.3 0 28.4 23 51.2 51.5 51.2s51.5-22.6 51.5-51.1c0-7-1.4-12.5-4-19.5h-95zm79.7 121c-.3-11-8.4-18-18.2-18H62.3c-9.9 0-18 7-18.2 18h63.5z"/><path fill="#D1AA4A" d="M78 136h29.6c-.3-11-7.7-18-16.7-18H78v18zm44.8-121H79v70.5c28 0 47.6-22.6 47.6-51 0-7.1-1.2-12.5-3.8-19.5z"/><path fill="#82692F" stroke="#82692F" stroke-linecap="round" stroke-miterlimit="10" d="M78.5 68.5v-39h-3l-6.6 2.9v4.1l4.6-1.7v-.3 34h-4v3h13v-3z"/></svg>