<svg xmlns="http://www.w3.org/2000/svg" viewBox="0 0 512 512"><circle fill="#EF3635" cx="256" cy="256" r="249.5"/><circle fill="#EDEDED" cx="257.1" cy="256" r="218.3"/><path fill="#BBB1A1" d="M294 138.9L475.4 256 257.1 474.3z"/><path fill="#BBB1A1" d="M475.4 256s3.5 71.3-46.4 134.5l-171.9 83.8-.9-96.1"/><path fill="#6FBE44" d="M257.1 338.3c-69.8 0-131.9 20.4-171.9 52.2 40 51 102.1 83.8 171.9 83.8 69.8 0 131.9-32.8 171.9-83.8-40-31.7-102.1-52.2-171.9-52.2z"/><path fill="#467336" d="M256 338.3c0 .1 0 .1 0 0v51.2c50.1 31.9 47.7 30.4 97.8 62.2 29.4-14.6 55.1-35.6 75.2-61.2-40.2-31.9-102.7-52.4-173-52.2z"/><path fill="#EF3635" d="M257.1 204.8c-17.9 0-32.4-14.5-32.4-32.4s14.5-32.4 32.4-32.4v-17.5c-27.6 0-49.9 22.3-49.9 49.9s22.3 217.1 49.9 217.1V204.8z"/><path fill="#9C2524" d="M257.1 122.5V140c17.9 0 32.4 14.5 32.4 32.4s-14.5 32.4-32.4 32.4v184.7c27.6 0 49.9-189.5 49.9-217.1s-22.3-49.9-49.9-49.9z"/></svg>