<?xml version="1.0" encoding="utf-8"?>
<!-- Generator: Adobe Illustrator 18.1.1, SVG Export Plug-In . SVG Version: 6.00 Build 0)  -->
<svg version="1.1" id="Layer_1" xmlns="http://www.w3.org/2000/svg" xmlns:xlink="http://www.w3.org/1999/xlink" x="0px" y="0px"
	 viewBox="0 0 150 150" enable-background="new 0 0 150 150" xml:space="preserve">
<polygon fill="#9C54A1" points="75.8,139 75.8,7.3 75.8,7.3 64.9,15.2 49.5,15.2 44.7,29.8 33.1,38.2 37.6,51.9 33.2,65.3 
	44.6,73.6 49.4,88.4 57.2,88.4 63.5,101.8 68.2,101.8 43.5,113.6 "/>
<path fill="#FFFFFF" d="M54.4,71.8c0.2,5.1,4.3,9.2,9.3,9.2s9.1-4.1,9.3-9.2H54.4z"/>
<path d="M57.2,71.8c0.4,3.3,3.1,5.9,6.5,5.9s6.1-2.6,6.5-5.9H57.2z"/>
<path fill="#311537" d="M67.7,70.3h-8c-1.5,0-2.7-1.2-2.7-2.8l0,0c0-1.5,1.2-2.8,2.7-2.8h8c1.5,0,2.8,1.2,2.8,2.8l0,0
	C70.5,69,69.2,70.3,67.7,70.3z"/>
<polygon fill="#311537" points="43.3,39.8 41.2,41.5 39,39.8 "/>
<polygon fill="#311537" points="55.3,31.8 53.2,33.5 51,31.8 "/>
<polygon fill="#311537" points="69.3,21.8 67.2,23.5 65,21.8 "/>
<polygon fill="#311537" points="70.3,33.8 68.2,35.5 66,33.8 "/>
<polygon fill="#311537" points="60.3,44.8 58.2,46.5 56,44.8 "/>
<polygon fill="#311537" points="70.3,55.8 68.2,57.5 66,55.8 "/>
<polygon fill="#311537" points="65.9,108.5 63.7,110.2 61.5,108.5 "/>
<polygon fill="#311537" points="57.9,113.5 55.7,115.2 53.5,113.5 "/>
<polygon fill="#311537" points="68.9,113.5 66.7,115.2 64.5,113.5 "/>
<polygon fill="#311537" points="63.9,119.5 61.7,121.2 59.5,119.5 "/>
<polygon fill="#311537" points="74.9,119.5 72.7,121.2 70.5,119.5 "/>
<polygon fill="#311537" points="69.9,124.5 67.7,126.2 65.5,124.5 "/>
<polygon fill="#311537" points="48.3,52.8 46.2,54.5 44,52.8 "/>
<polygon fill="#311537" points="51.2,70.9 49.1,72.6 46.9,70.9 "/>
<polygon fill="#311537" points="54.4,84.2 52.2,85.8 50,84.2 "/>
<path fill="#311537" d="M75.8,101.8h-7.6v6.9h0.1c0.5,1.8,3.7,3.3,7.5,3.3V101.8z"/>
<polygon points="75.8,80.7 75.8,80.5 72.6,86.2 75.8,86.2 "/>
<polygon fill="#311537" points="75.8,139 43.6,113.6 75.8,142.7 "/>
<path fill="#C62527" d="M68.4,88c-0.1,0.5-0.2,1-0.2,1.7c0,1.4,0.7,2.6,2.1,3.3c1.3,0.7,3.2,1,5.5,1.1v-3.2L74.2,88H68.4z"/>
<polygon fill="#FFFFFF" points="72.7,88 71,90.9 69.3,88 "/>
<polygon fill="#FFFFFF" points="75.8,88 75.8,90.9 74.2,88 "/>
<polygon fill="#6F287A" points="75.8,139 75.8,7.3 75.9,7.3 86.8,15.2 102.1,15.2 106.9,29.8 118.5,38.2 114.1,51.9 118.4,65.3 
	107,73.6 102.2,88.4 94.4,88.4 88.1,101.8 83.4,101.8 108.1,113.6 "/>
<path fill="#FFFFFF" d="M97.4,71.8c-0.2,5.1-4.3,9.2-9.3,9.2s-9.1-4.1-9.3-9.2H97.4z"/>
<path d="M94.6,71.8c-0.4,3.3-3.1,5.9-6.5,5.9s-6.1-2.6-6.5-5.9H94.6z"/>
<path fill="#311537" d="M84.1,70.3h8c1.5,0,2.8-1.2,2.8-2.8l0,0c0-1.5-1.2-2.8-2.8-2.8h-8c-1.5,0-2.8,1.2-2.8,2.8l0,0
	C81.3,69,82.6,70.3,84.1,70.3z"/>
<polygon fill="#311537" points="108.4,39.8 110.6,41.5 112.8,39.8 "/>
<polygon fill="#311537" points="96.4,31.8 98.6,33.5 100.8,31.8 "/>
<polygon fill="#311537" points="82.4,21.8 84.6,23.5 86.8,21.8 "/>
<polygon fill="#311537" points="81.4,33.8 83.6,35.5 85.8,33.8 "/>
<polygon fill="#311537" points="91.4,44.8 93.6,46.5 95.8,44.8 "/>
<polygon fill="#311537" points="81.4,55.8 83.6,57.5 85.8,55.8 "/>
<polygon fill="#311537" points="85.9,108.5 88.1,110.2 90.3,108.5 "/>
<polygon fill="#311537" points="93.9,113.5 96.1,115.2 98.3,113.5 "/>
<polygon fill="#311537" points="82.9,113.5 85.1,115.2 87.3,113.5 "/>
<polygon fill="#311537" points="87.9,119.5 90.1,121.2 92.3,119.5 "/>
<polygon fill="#311537" points="76.9,119.5 79.1,121.2 81.3,119.5 "/>
<polygon fill="#311537" points="81.9,124.5 84.1,126.2 86.3,124.5 "/>
<polygon fill="#311537" points="103.4,52.8 105.6,54.5 107.8,52.8 "/>
<polygon fill="#311537" points="100.5,70.9 102.7,72.6 104.9,70.9 "/>
<polygon fill="#311537" points="97.4,84.2 99.6,85.8 101.8,84.2 "/>
<path fill="#311537" d="M75.8,101.8h7.6v6.9h-0.1c-0.5,1.8-3.7,3.3-7.5,3.3V101.8z"/>
<polygon points="75.8,80.7 75.8,80.5 79.1,86.2 75.8,86.2 "/>
<polygon fill="#311537" points="75.8,139 108.1,113.6 75.8,142.7 "/>
<path fill="#C62527" d="M83.2,88c0.1,0.5,0.2,1,0.2,1.7c0,1.4-0.7,2.6-2.1,3.3c-1.3,0.7-3.2,1-5.5,1.1v-3.2l1.7-2.9H83.2z"/>
<polygon fill="#FFFFFF" points="79,88 80.6,90.9 82.3,88 "/>
<polygon fill="#FFFFFF" points="75.8,88 75.8,90.9 77.5,88 "/>
</svg>
