<?xml version="1.0" encoding="iso-8859-1"?>
<!-- Generator: Adobe Illustrator 18.1.1, SVG Export Plug-In . SVG Version: 6.00 Build 0)  -->
<svg version="1.1" xmlns="http://www.w3.org/2000/svg" xmlns:xlink="http://www.w3.org/1999/xlink" x="0px" y="0px"
	 viewBox="0 0 625 625" style="enable-background:new 0 0 625 625;" xml:space="preserve">
<g id="Layer_6">
	<g id="Back">
		<path style="fill:#5C5C91;" d="M312.583,46.011c-145.61,0-263.651,118.04-263.651,263.651s118.04,263.651,263.651,263.651
			s263.651-118.04,263.651-263.651S458.194,46.011,312.583,46.011z M312.583,505.239c-108.014,0-195.577-87.563-195.577-195.577
			s87.563-195.577,195.577-195.577S508.16,201.648,508.16,309.662S420.597,505.239,312.583,505.239z"/>
		<rect x="280.449" y="0" style="fill:#8989DB;" width="64.269" height="625.167"/>
		<rect x="0" y="280.449" style="fill:#8989DB;" width="625.167" height="64.269"/>
	</g>
	<g id="Body">
		<g id="Body_8_">
			<path style="fill:#E61856;" d="M155.064,420.544c-9.122,11.904-14.744,27.494-14.047,48.013
				c-1.649,48.597,31.915,69.781,64.327,78.956l27.836,35.386l8.427,13.601l3.571-0.387l26.914-33.32l24.201,24.202l16.524-16.524
				l16.524,16.524l24.201-24.202l26.914,33.32l3.572,0.387l7.276-11.743l29.39-37.363c32.287-9.237,65.566-30.442,63.923-78.837
				c0.7-20.623-4.981-36.268-14.185-48.195c26.814-14.525,48.207-39.423,46.758-82.125c1.713-50.483-28.481-76.117-61.84-89.097
				c9.995-20.717,15.598-43.95,15.598-68.493c0-87.164-70.66-157.824-157.824-157.824S155.3,93.484,155.3,180.648
				c0,24.411,5.548,47.523,15.442,68.156c-33.722,12.864-64.494,38.486-62.765,89.434
				C106.522,381.114,128.097,406.043,155.064,420.544z"/>
			<path style="fill:#83173C;" d="M516.684,338.238c1.713-50.483-28.481-76.117-61.84-89.097
				c9.995-20.717,15.598-43.95,15.598-68.493c0-86.547-69.673-156.787-155.985-157.777v549.746l14.378,14.378l24.201-24.202
				l26.914,33.32l3.572,0.387l7.276-11.743l29.39-37.363c32.287-9.237,65.566-30.442,63.923-78.837
				c0.7-20.623-4.981-36.268-14.185-48.195C496.74,405.837,518.134,380.939,516.684,338.238z"/>
			<path style="fill:none;stroke:#6D0C2C;stroke-miterlimit:10;" d="M217.29,134.512c0,11.167,9.036,20.204,20.204,20.204"/>
			<path style="fill:none;stroke:#6D0C2C;stroke-miterlimit:10;" d="M241.087,166.222c-10.381-4.116-22.112,0.953-26.228,11.334"/>
			<path style="fill:none;stroke:#6D0C2C;stroke-miterlimit:10;" d="M203.29,176.353c10.523-10.028,10.923-26.657,0.895-37.18"/>
			<path style="fill:none;stroke:#461023;stroke-miterlimit:10;" d="M401.495,221.986c0,7.8,6.311,14.111,14.111,14.111"/>
			<path style="fill:none;stroke:#461023;stroke-miterlimit:10;" d="M418.115,244.134c-7.25-2.875-15.444,0.665-18.319,7.916"/>
			<path style="fill:none;stroke:#461023;stroke-miterlimit:10;" d="M391.716,251.21c7.349-7.004,7.629-18.618,0.625-25.968"/>
			<path style="fill:none;stroke:#6D0C2C;stroke-miterlimit:10;" d="M182.394,349.065c0,7.8,6.311,14.111,14.111,14.111"/>
			<path style="fill:none;stroke:#6D0C2C;stroke-miterlimit:10;" d="M199.015,371.212c-7.25-2.875-15.444,0.665-18.319,7.916"/>
			<path style="fill:none;stroke:#6D0C2C;stroke-miterlimit:10;" d="M172.616,378.288c7.349-7.004,7.629-18.618,0.625-25.968"/>
			<path style="fill:none;stroke:#461023;stroke-miterlimit:10;" d="M427.787,401.649c0,7.8,6.311,14.111,14.111,14.111"/>
			<path style="fill:none;stroke:#461023;stroke-miterlimit:10;" d="M444.407,423.796c-7.25-2.875-15.444,0.665-18.319,7.916"/>
			<path style="fill:none;stroke:#461023;stroke-miterlimit:10;" d="M418.008,430.872c7.349-7.004,7.629-18.618,0.625-25.968"/>
			<path style="fill:none;stroke:#6D0C2C;stroke-miterlimit:10;" d="M260.718,481.571c0,14.349,11.611,25.961,25.961,25.961"/>
			<path style="fill:none;stroke:#6D0C2C;stroke-miterlimit:10;" d="M291.295,522.317c-13.339-5.289-28.413,1.224-33.702,14.563"/>
			<path style="fill:none;stroke:#6D0C2C;stroke-miterlimit:10;" d="M242.728,535.334c13.521-12.886,14.035-34.253,1.149-47.774"/>
		</g>
	</g>
	<g id="Eyes">
		<g id="Eyes_8_">
			<ellipse style="fill:#FFFFFF;" cx="222.752" cy="315.965" rx="24.101" ry="7.778"/>
			<path d="M227.988,308.377c-1.895,1.972-3.074,4.638-3.074,7.588c0,2.951,1.179,5.617,3.074,7.588
				c10.79-0.772,18.865-3.874,18.865-7.588C246.853,312.25,238.778,309.149,227.988,308.377z"/>
			<ellipse style="fill:#FFFFFF;" cx="402.414" cy="315.965" rx="24.101" ry="7.778"/>
			<path d="M407.651,308.377c-1.895,1.972-3.074,4.638-3.074,7.588c0,2.951,1.179,5.617,3.074,7.588
				c10.79-0.772,18.865-3.874,18.865-7.588C426.516,312.25,418.441,309.149,407.651,308.377z"/>
			<path d="M238.274,310.255l-23.564-23.564c-0.656-0.656-0.656-1.73,0-2.386l8.071-8.071c0.656-0.656,1.73-0.656,2.386,0
				l23.564,23.564c0.656,0.656,0.656,1.73,0,2.386l-8.071,8.071C240.004,310.912,238.931,310.912,238.274,310.255z"/>
			<path d="M386.892,310.255l23.564-23.564c0.656-0.656,0.656-1.73,0-2.386l-8.071-8.071c-0.656-0.656-1.73-0.656-2.387,0
				l-23.564,23.564c-0.656,0.656-0.656,1.73,0,2.386l8.071,8.071C385.162,310.912,386.236,310.912,386.892,310.255z"/>
		</g>
	</g>
	<g id="Nose">
		<path id="Nose_7_" style="fill:none;stroke:#000000;stroke-miterlimit:10;" d="M305.271,335.412
			c4.042,4.042,10.582,4.042,14.624,0"/>
	</g>
	<g id="Mouth">
		<path id="Mouth_8_" style="fill:none;stroke:#231F20;stroke-miterlimit:10;" d="M290.893,362.784
			c11.989-11.989,31.391-11.989,43.38,0"/>
	</g>
</g>
<g id="Layer_1">
</g>
</svg>
