<?xml version="1.0" encoding="iso-8859-1"?>
<!-- Generator: Adobe Illustrator 18.1.1, SVG Export Plug-In . SVG Version: 6.00 Build 0)  -->
<svg version="1.1" xmlns="http://www.w3.org/2000/svg" xmlns:xlink="http://www.w3.org/1999/xlink" x="0px" y="0px"
	 viewBox="0 0 625 625" style="enable-background:new 0 0 625 625;" xml:space="preserve">
<g id="Layer_3">
	<g id="Back">
		<polygon id="Back_2_" style="fill:#1C7139;" points="312.583,37.771 400.926,216.773 598.466,245.477 455.525,384.811 
			489.269,581.553 312.583,488.664 135.898,581.553 169.642,384.811 26.7,245.477 224.241,216.773 		"/>
	</g>
	<g id="Nose">
		<polygon id="Nose_2_" style="fill:#240D13;" points="316.449,350.364 316.449,342.504 309.151,342.504 309.151,350.364 
			297.987,350.364 312.495,368.437 328.434,350.364 		"/>
	</g>
	<g id="Body">
		<g id="Body_2_">
			<g>
				<path style="fill:#7D0024;" d="M471.318,381.096l-1.092-38.118l-16.967-101.189l95.572-77.195l0.717-6.615L312.583,11.158
					v488.56v108.341C484.754,613.901,471.318,381.096,471.318,381.096z"/>
			</g>
			<g>
				<path style="fill:#CE1E48;" d="M153.849,381.096l5.474-46.882l12.585-92.425l-95.572-77.195l-0.717-6.615L312.583,11.158v488.56
					v108.341C140.412,613.901,153.849,381.096,153.849,381.096z"/>
			</g>
			<polygon style="fill:#7D0024;" points="170.686,99.076 194.101,84.568 170.686,68.629 			"/>
			<polygon style="fill:#7D0024;" points="105.503,140.158 128.919,125.649 105.503,109.71 			"/>
			<polygon style="fill:#7D0024;" points="231.486,61.281 254.902,46.773 231.486,30.834 			"/>
			<polygon style="fill:#240D13;" points="453.05,99.076 429.634,84.568 453.05,68.629 			"/>
			<polygon style="fill:#240D13;" points="518.232,140.158 494.817,125.649 518.232,109.71 			"/>
			<polygon style="fill:#240D13;" points="392.251,61.281 368.835,46.773 392.251,30.834 			"/>
			<polygon style="fill:#240D13;" points="436.071,316.097 412.655,301.589 436.071,285.649 			"/>
			<polygon style="fill:#240D13;" points="392.251,403.737 368.835,389.229 392.251,373.29 			"/>
			<polygon style="fill:#240D13;" points="440.453,491.377 417.037,476.869 440.453,460.93 			"/>
			<polygon style="fill:#240D13;" points="361.576,539.579 338.161,525.071 361.576,509.132 			"/>
			<polygon style="fill:#240D13;" points="420.048,239.945 396.633,225.437 420.048,209.498 			"/>
			<polygon style="fill:#240D13;" points="447.778,162.17 424.363,147.662 447.778,131.723 			"/>
			<polygon style="fill:#240D13;" points="361.576,133.047 338.161,118.539 361.576,102.6 			"/>
			<polygon style="fill:#7D0024;" points="192.116,316.097 215.532,301.589 192.116,285.649 			"/>
			<polygon style="fill:#7D0024;" points="235.936,403.737 259.352,389.229 235.936,373.29 			"/>
			<polygon style="fill:#7D0024;" points="187.734,491.377 211.15,476.869 187.734,460.93 			"/>
			<polygon style="fill:#7D0024;" points="266.61,539.579 290.026,525.071 266.61,509.132 			"/>
			<polygon style="fill:#7D0024;" points="297.987,448.356 312.495,471.772 312.583,448.356 			"/>
			<polygon style="fill:#240D13;" points="325.638,448.356 311.13,471.772 311.042,448.356 			"/>
			<polygon style="fill:#7D0024;" points="208.139,239.945 231.554,225.437 208.139,209.498 			"/>
			<polygon style="fill:#7D0024;" points="180.408,162.17 203.824,147.662 180.408,131.723 			"/>
			<polygon style="fill:#7D0024;" points="266.61,133.047 290.026,118.539 266.61,102.6 			"/>
		</g>
	</g>
	<g id="Eyes">
		<g id="Eyes_2_">
			<path style="fill:#FFFFFF;" d="M312.583,187.672c-38.179,0-69.128,31.791-69.128,71.007c0,39.216,30.95,71.007,69.128,71.007
				V187.672z"/>
			<path style="fill:#C8C8C8;" d="M312.583,187.672c38.179,0,69.128,31.791,69.128,71.007c0,39.216-30.95,71.007-69.128,71.007
				V187.672z"/>
			<ellipse style="fill:#231F20;" cx="312.583" cy="258.679" rx="48.195" ry="49.505"/>
		</g>
	</g>
	<g id="Mouth">
		<g id="Mouth_2_">
			<path style="fill:#5C0000;" d="M281.135,394.282h63.473c0.479-2.109,0.764-4.595,0.764-7.565c0-6.267-3.255-11.249-9.284-14.262
				c-5.936-3.017-14.554-4.646-25.085-4.646c-10.434,0-17.902,1.676-23.168,4.549c-5.266,2.826-8.041,7.086-8.041,13.069
				C279.794,388.728,280.367,391.745,281.135,394.282z"/>
			<path style="fill:#ED3535;" d="M312.583,381.958c-14.621,0-26.473,5.518-26.473,12.324h52.946
				C339.056,387.476,327.204,381.958,312.583,381.958z"/>
		</g>
	</g>
</g>
<g id="Layer_1">
</g>
</svg>
