<?xml version="1.0" encoding="iso-8859-1"?>
<!-- Generator: Adobe Illustrator 18.1.1, SVG Export Plug-In . SVG Version: 6.00 Build 0)  -->
<svg version="1.1" xmlns="http://www.w3.org/2000/svg" xmlns:xlink="http://www.w3.org/1999/xlink" x="0px" y="0px"
	 viewBox="0 0 625 625" style="enable-background:new 0 0 625 625;" xml:space="preserve">
<g id="Layer_9">
	<g id="Back">
		<polygon id="Back_10_" style="fill:#0BC0FF;" points="312.583,40.041 333.672,176.511 395.901,53.237 373.786,189.545 
			471.062,91.534 407.909,214.337 530.711,151.183 432.7,248.459 569.008,226.345 445.734,288.573 582.204,309.662 445.734,330.751 
			569.008,392.979 432.7,370.865 530.711,468.141 407.909,404.987 471.062,527.79 373.786,429.779 395.901,566.087 333.672,442.813 
			312.583,579.283 291.494,442.813 229.266,566.087 251.381,429.779 154.104,527.79 217.258,404.987 94.455,468.141 
			192.466,370.865 56.159,392.979 179.433,330.751 42.962,309.662 179.433,288.573 56.159,226.345 192.466,248.459 94.455,151.183 
			217.258,214.337 154.104,91.534 251.381,189.545 229.266,53.237 291.494,176.511 		"/>
	</g>
	<g id="Body">
		<g id="Body_14_">
			<path style="fill:#85C340;" d="M523.233,331.579c2.799-13.817,4.279-28.113,4.279-42.756
				c0-118.29-95.893-214.182-214.183-214.182S99.146,170.533,99.146,288.823c0,13.749,1.347,27.176,3.823,40.204l-0.048-0.045
				c0,0-114.21,99.373,0,213.583c0,0-25.52-92.491,33.077-133.607c15.143,22.308,34.39,41.596,56.648,56.807
				c-9.066,19.462-12.29,48.075,18.554,78.919c0,0-11.14-40.272,11.646-61.725c27.492,12.836,58.139,20.047,90.482,20.047
				s62.99-7.211,90.482-20.047c22.786,21.453,11.646,61.725,11.646,61.725c30.844-30.844,27.62-59.457,18.554-78.919
				c21.736-14.854,40.575-33.616,55.55-55.262c55.809,41.848,30.895,132.063,30.895,132.063
				C623.868,439.154,540.015,347.91,523.233,331.579z"/>
			<path style="fill:#5D823A;" d="M525.021,331.579c2.799-13.817,4.279-28.113,4.279-42.756
				c0-118.29-95.893-214.182-214.183-214.182c-0.55,0-1.091,0.037-1.64,0.041V502.96c0.549,0.004,1.089,0.045,1.64,0.045
				c32.344,0,62.99-7.211,90.482-20.047c22.786,21.453,11.646,61.725,11.646,61.725c30.844-30.844,27.62-59.457,18.554-78.919
				c21.736-14.854,40.575-33.616,55.55-55.262c55.809,41.848,30.895,132.063,30.895,132.063
				C625.656,439.154,541.803,347.91,525.021,331.579z"/>
			
				<ellipse transform="matrix(0.0606 -0.9982 0.9982 0.0606 -404.4448 563.3584)" style="fill:#C08386;" cx="97.07" cy="496.546" rx="6.857" ry="2.968"/>
			
				<ellipse transform="matrix(0.1952 -0.9808 0.9808 0.1952 -377.3917 473.9108)" style="fill:#C08386;" cx="100.061" cy="466.903" rx="6.857" ry="2.968"/>
			
				<ellipse transform="matrix(0.3358 -0.9419 0.9419 0.3358 -341.9892 395.7814)" style="fill:#C08386;" cx="109.656" cy="440.397" rx="6.857" ry="2.968"/>
			
				<ellipse transform="matrix(0.0606 -0.9982 0.9982 0.0606 -327.5717 701.0576)" style="fill:#C08386;" cx="208.661" cy="524.556" rx="4.133" ry="1.789"/>
			
				<ellipse transform="matrix(0.1952 -0.9808 0.9808 0.1952 -327.5593 614.2117)" style="fill:#C08386;" cx="210.464" cy="506.69" rx="4.133" ry="1.789"/>
			
				<ellipse transform="matrix(0.3358 -0.9419 0.9419 0.3358 -318.5915 529.6006)" style="fill:#C08386;" cx="216.246" cy="490.715" rx="4.133" ry="1.789"/>
			
				<ellipse transform="matrix(-0.0606 -0.9982 0.9982 -0.0606 62.9694 1057.0403)" style="fill:#C08386;" cx="528.902" cy="498.888" rx="6.857" ry="2.968"/>
			
				<ellipse transform="matrix(-0.1952 -0.9808 0.9808 -0.1952 168.3363 1076.6272)" style="fill:#C08386;" cx="525.911" cy="469.245" rx="6.857" ry="2.968"/>
			
				<ellipse transform="matrix(-0.3358 -0.9419 0.9419 -0.3358 272.6909 1077.7559)" style="fill:#C08386;" cx="516.316" cy="442.739" rx="6.857" ry="2.968"/>
			
				<ellipse transform="matrix(-0.0606 -0.9982 0.9982 -0.0606 -83.2125 979.5602)" style="fill:#C08386;" cx="419.351" cy="528.938" rx="4.133" ry="1.789"/>
			
				<ellipse transform="matrix(-0.1952 -0.9808 0.9808 -0.1952 -2.199 1020.3396)" style="fill:#C08386;" cx="417.548" cy="511.072" rx="4.133" ry="1.789"/>
			
				<ellipse transform="matrix(-0.3358 -0.9419 0.9419 -0.3358 83.7108 1049.2196)" style="fill:#C08386;" cx="411.766" cy="495.097" rx="4.133" ry="1.789"/>
		</g>
	</g>
	<g id="Mouth">
		<g id="Mouth_13_">
			<path style="fill:#5E3F17;" d="M317.837,321.201h-10.52c-0.855,0-1.555-0.7-1.555-1.555v-18.799c0-0.855,0.7-1.555,1.555-1.555
				h10.52c0.855,0,1.555,0.7,1.555,1.555v18.799C319.392,320.501,318.693,321.201,317.837,321.201z"/>
			<path style="fill:#EE4041;" d="M306.046,315.723c0.627,3.113,3.389,5.478,6.68,5.478c3.291,0,6.053-2.364,6.68-5.478
				c-0.627-3.113-3.389-5.477-6.68-5.477C309.435,310.246,306.672,312.61,306.046,315.723z"/>
		</g>
	</g>
	<g id="Eyes">
		<g id="Eyes_14_">
			<g>
				<path style="fill:#FFFFFF;" d="M312.732,149.958c-17.093,0-30.949,14.233-30.949,31.79c0,17.557,13.856,31.79,30.949,31.79
					V149.958z"/>
				<path style="fill:#C8C8C8;" d="M312.732,149.958c17.093,0,30.949,14.233,30.949,31.79c0,17.557-13.856,31.79-30.949,31.79
					V149.958z"/>
				<ellipse style="fill:#231F20;" cx="312.732" cy="181.748" rx="21.577" ry="22.164"/>
			</g>
			<g>
				<path style="fill:#FFFFFF;" d="M407.799,193.778c-17.093,0-30.949,14.233-30.949,31.79c0,17.557,13.856,31.79,30.949,31.79
					V193.778z"/>
				<path style="fill:#C8C8C8;" d="M407.799,193.778c17.093,0,30.949,14.233,30.949,31.79c0,17.557-13.856,31.79-30.949,31.79
					V193.778z"/>
				<ellipse style="fill:#231F20;" cx="407.799" cy="225.568" rx="21.577" ry="22.164"/>
			</g>
			<g>
				<path style="fill:#FFFFFF;" d="M217.367,193.778c-17.093,0-30.949,14.233-30.949,31.79c0,17.557,13.856,31.79,30.949,31.79
					V193.778z"/>
				<path style="fill:#C8C8C8;" d="M217.367,193.778c17.093,0,30.949,14.233,30.949,31.79c0,17.557-13.856,31.79-30.949,31.79
					V193.778z"/>
				<ellipse style="fill:#231F20;" cx="217.367" cy="225.568" rx="21.577" ry="22.164"/>
			</g>
			<path style="fill:none;stroke:#231F20;stroke-width:4;stroke-linecap:round;stroke-miterlimit:10;" d="M332.494,137.453
				c-11.269,12.668-30.638,13.799-43.306,2.53"/>
			<path style="fill:none;stroke:#231F20;stroke-width:4;stroke-linecap:round;stroke-miterlimit:10;" d="M429.452,180.46
				c-11.269,12.668-30.638,13.799-43.306,2.53"/>
			<path style="fill:none;stroke:#231F20;stroke-width:4;stroke-linecap:round;stroke-miterlimit:10;" d="M239.02,180.46
				c-11.269,12.668-30.638,13.799-43.306,2.53"/>
		</g>
	</g>
	<g id="Nose">
		<g id="Nose_11_">
			<path d="M295.768,267.637c-4.883-0.619-6.279,1.337-7.21,3.687c-0.14,0.354-0.384,2.799-0.384,3.177
				c0,6.727-8.581,10.155-19.529,10.155c-9.118,0-16.778-3.788-19.091-8.939c-0.542,1.33-0.861,2.714-0.861,4.147
				c0,9.418,12.425,17.053,27.751,17.053s27.751-7.635,27.751-17.053C304.196,275.063,302.167,268.449,295.768,267.637z"/>
			<path d="M330.152,267.637c4.883-0.619,6.279,1.337,7.21,3.687c0.14,0.354,0.384,2.799,0.384,3.177
				c0,6.727,8.581,10.155,19.529,10.155c9.118,0,16.778-3.788,19.091-8.939c0.542,1.33,0.861,2.714,0.861,4.147
				c0,9.418-12.425,17.053-27.751,17.053c-15.327,0-27.751-7.635-27.751-17.053C321.724,275.063,323.753,268.449,330.152,267.637z"
				/>
			<ellipse style="fill:#C08386;" cx="145.245" cy="278.664" rx="25.744" ry="11.142"/>
			<ellipse style="fill:#C08386;" cx="479.921" cy="278.664" rx="25.744" ry="11.142"/>
		</g>
	</g>
</g>
<g id="Layer_1">
</g>
</svg>
