<?xml version="1.0" encoding="iso-8859-1"?>
<!-- Generator: Adobe Illustrator 18.1.1, SVG Export Plug-In . SVG Version: 6.00 Build 0)  -->
<svg version="1.1" xmlns="http://www.w3.org/2000/svg" xmlns:xlink="http://www.w3.org/1999/xlink" x="0px" y="0px"
	 viewBox="0 0 625 625" style="enable-background:new 0 0 625 625;" xml:space="preserve">
<g id="Layer_10">
	<g id="Back">
		<ellipse id="Back_11_" style="fill:#0BC0FF;" cx="312.583" cy="309.662" rx="176.57" ry="292.499"/>
	</g>
	<g id="Body">
		<g id="Body_16_">
			<path style="fill:#B16EAD;" d="M526.152,564.824c-48.526-108.222-108.555-99.558-108.555-99.558H209.143
				c0,0-4.854-0.692-12.903,0.788c-1.339,0.233-2.654,0.527-3.954,0.865c-0.652,0.161-1.305,0.325-1.987,0.514
				c-0.165,0.05-0.332,0.094-0.497,0.147c-21.656,6.174-57.829,27.253-89.213,97.244h99.605c1.507,0.139,3.027,0.233,4.568,0.233
				h214.253c1.542,0,3.061-0.094,4.568-0.233H526.152z"/>
			<path style="fill:#7F4784;" d="M415.406,465.266H311.179v99.791h105.644c1.542,0,3.061-0.094,4.568-0.233h102.569
				C475.435,456.602,415.406,465.266,415.406,465.266z"/>
			<path style="fill:#442849;" d="M269.843,496.369h81.168c6.6,0,12-5.4,12-12V403.2c0-6.6-5.4-12-12-12h-81.168
				c-6.6,0-12,5.4-12,12v81.168C257.843,490.969,263.243,496.369,269.843,496.369z"/>
			<path style="fill:#B16EAD;" d="M504.605,223.778c-1.292,0-2.539,0.168-3.771,0.38c-10.821-95.595-91.918-169.891-190.407-169.891
				c-98.395,0-179.428,74.154-190.372,169.618c-0.361-0.017-0.702-0.108-1.067-0.108c-12.241,0-22.164,9.923-22.164,22.164
				c0,12.241,9.923,22.164,22.164,22.164c0.366,0,0.706-0.09,1.067-0.108C131,363.461,212.033,437.616,310.427,437.616
				c98.489,0,179.586-74.295,190.407-169.891c1.231,0.212,2.479,0.38,3.771,0.38c12.241,0,22.164-9.923,22.164-22.164
				C526.769,233.701,516.845,223.778,504.605,223.778z"/>
			<path style="fill:#7F4784;" d="M506.179,223.778c-1.292,0-2.539,0.168-3.771,0.38c-10.77-95.15-91.171-169.17-189.038-169.858
				v383.284c97.867-0.688,178.268-74.709,189.038-169.859c1.231,0.212,2.479,0.38,3.771,0.38c12.241,0,22.164-9.923,22.164-22.164
				C528.343,233.701,518.419,223.778,506.179,223.778z"/>
			<circle style="fill:#C8C8C8;" cx="287.422" cy="203.906" r="4.747"/>
			<circle style="fill:#C8C8C8;" cx="287.422" cy="160.086" r="4.747"/>
			<circle style="fill:#C8C8C8;" cx="287.422" cy="181.996" r="4.747"/>
			<circle style="fill:#C8C8C8;" cx="335.624" cy="203.906" r="4.747"/>
			<circle style="fill:#C8C8C8;" cx="335.624" cy="160.086" r="4.747"/>
			<circle style="fill:#C8C8C8;" cx="335.624" cy="181.996" r="4.747"/>
		</g>
	</g>
	<g id="Eyes">
		<g id="Eyes_16_">
			<g>
				<path style="fill:#FFFFFF;" d="M178.932,223.778c-17.093,0-30.949,14.233-30.949,31.79c0,17.557,13.856,31.79,30.949,31.79
					V223.778z"/>
				<path style="fill:#C8C8C8;" d="M178.932,223.778c17.093,0,30.949,14.233,30.949,31.79c0,17.557-13.856,31.79-30.949,31.79
					V223.778z"/>
				<ellipse style="fill:#231F20;" cx="178.932" cy="255.568" rx="21.577" ry="22.164"/>
			</g>
			<g>
				<path style="fill:#FFFFFF;" d="M446.235,223.778c-17.093,0-30.949,14.233-30.949,31.79c0,17.557,13.856,31.79,30.949,31.79
					V223.778z"/>
				<path style="fill:#C8C8C8;" d="M446.235,223.778c17.093,0,30.949,14.233,30.949,31.79c0,17.557-13.856,31.79-30.949,31.79
					V223.778z"/>
				<ellipse style="fill:#231F20;" cx="446.235" cy="255.568" rx="21.577" ry="22.164"/>
			</g>
		</g>
	</g>
	<g id="Nose">
		<ellipse id="Nose_13_" style="fill:#442849;" cx="312.583" cy="295.7" rx="20.586" ry="3.88"/>
	</g>
	<g id="Mouth">
		<path id="Mouth_15_" style="fill:#442849;" d="M312.583,338.625c-16.047,0-29.308-11.776-31.709-27.15
			c-0.254,1.629-0.425,3.285-0.425,4.986c0,17.748,14.387,32.135,32.135,32.135s32.135-14.387,32.135-32.135
			c0-1.7-0.171-3.357-0.425-4.986C341.892,326.849,328.631,338.625,312.583,338.625z"/>
	</g>
</g>
<g id="Layer_1">
</g>
</svg>
