<?xml version="1.0" encoding="iso-8859-1"?>
<!-- Generator: Adobe Illustrator 18.1.1, SVG Export Plug-In . SVG Version: 6.00 Build 0)  -->
<svg version="1.1" xmlns="http://www.w3.org/2000/svg" xmlns:xlink="http://www.w3.org/1999/xlink" x="0px" y="0px"
	 viewBox="0 0 625 625" style="enable-background:new 0 0 625 625;" xml:space="preserve">
<g id="Layer_7">
	<g id="Back">
		<g id="Back_7_">
			<polygon style="fill:#3E3E60;" points="576.448,38.205 312.583,495.233 48.718,38.205 			"/>
			<polygon style="fill:#5C5C91;" points="576.448,124.091 312.583,581.119 48.718,124.091 			"/>
		</g>
	</g>
	<g id="Body">
		<g id="Body_10_">
			<path style="fill:#F59899;" d="M521.625,485.894c-0.038-70.543-38.409-173.647-92.897-242.535
				c1.018-6.83,1.494-13.831,1.307-20.973c-1.152-43.985-25.829-81.803-61.66-101.785c4.657-9.296,7.177-19.831,6.886-30.951
				c-0.946-36.108-30.984-64.613-67.093-63.667c-36.108,0.946-64.613,30.984-63.667,67.093c0.26,9.94,2.789,19.265,6.978,27.596
				c-37.702,21.08-62.74,61.826-61.531,108.004c0.141,5.376,0.668,10.649,1.489,15.82c-54.733,71.736-89.715,180.112-87.822,252.349
				c3.024,115.43,99.041,89.171,214.48,91.84C430.853,591.29,521.698,620.869,521.625,485.894z"/>
			<path style="fill:#F06262;" d="M428.727,243.526c1.018-6.83,1.494-13.831,1.307-20.973
				c-1.152-43.985-25.829-81.803-61.66-101.785c4.657-9.296,7.177-19.831,6.886-30.951c-0.907-34.62-28.575-62.174-62.677-63.56
				v562.507c1.837,0.029,3.664,0.045,5.511,0.087c112.759,2.607,203.603,32.185,203.53-102.79
				C521.586,415.518,483.216,312.415,428.727,243.526z"/>
			<path style="fill:#F06262;" d="M158.505,433.507c12.837-4.884,26.735-1.686,36.186,7.038c-0.065-0.18-0.107-0.363-0.176-0.543
				c-6.156-16.181-24.264-24.308-40.445-18.152c-16.181,6.156-24.308,24.264-18.152,40.445c0.068,0.18,0.158,0.345,0.23,0.522
				C137.41,450.019,145.668,438.391,158.505,433.507z"/>
			<path style="fill:#F06262;" d="M152.029,527.375c7-2.663,14.58-0.919,19.733,3.838c-0.035-0.098-0.058-0.198-0.096-0.296
				c-3.357-8.824-13.232-13.256-22.056-9.899c-8.824,3.357-13.256,13.232-9.899,22.056c0.037,0.098,0.086,0.188,0.125,0.285
				C140.525,536.379,145.028,530.038,152.029,527.375z"/>
			<path style="fill:#F06262;" d="M242.824,383.929c7.476-0.454,14.19,3.472,17.69,9.55c-0.004-0.104,0.003-0.206-0.003-0.311
				c-0.572-9.424-8.675-16.6-18.099-16.028c-9.424,0.572-16.6,8.675-16.028,18.099c0.006,0.105,0.026,0.205,0.035,0.309
				C229.158,389.092,235.348,384.383,242.824,383.929z"/>
			<path style="fill:#F06262;" d="M168.33,348.873c7.476-0.454,14.19,3.472,17.69,9.55c-0.004-0.104,0.003-0.206-0.003-0.311
				c-0.572-9.424-8.675-16.6-18.099-16.028c-9.424,0.572-16.6,8.675-16.028,18.099c0.006,0.105,0.026,0.205,0.035,0.309
				C154.663,354.036,160.853,349.327,168.33,348.873z"/>
			<path style="fill:#F06262;" d="M168.33,344.491c7.476-0.454,14.19,3.472,17.69,9.55c-0.004-0.104,0.003-0.206-0.003-0.311
				c-0.572-9.424-8.675-16.6-18.099-16.028c-9.424,0.572-16.6,8.675-16.028,18.099c0.006,0.105,0.026,0.205,0.035,0.309
				C154.663,349.654,160.853,344.945,168.33,344.491z"/>
			<path style="fill:#F06262;" d="M286.644,230.559c7.476-0.454,14.19,3.472,17.69,9.55c-0.004-0.104,0.003-0.206-0.003-0.311
				c-0.572-9.424-8.675-16.6-18.099-16.028c-9.424,0.572-16.6,8.675-16.028,18.099c0.006,0.105,0.026,0.205,0.035,0.309
				C272.978,235.721,279.168,231.013,286.644,230.559z"/>
			<path style="fill:#F06262;" d="M284.302,145.378c3.901-1.039,7.867,0.316,10.366,3.152c-0.013-0.055-0.02-0.109-0.035-0.164
				c-1.31-4.917-6.358-7.84-11.275-6.53c-4.917,1.31-7.84,6.358-6.53,11.275c0.015,0.055,0.036,0.106,0.051,0.16
				C277.635,149.567,280.401,146.418,284.302,145.378z"/>
			<path style="fill:#F06262;" d="M266.774,97.176c3.901-1.039,7.867,0.316,10.366,3.152c-0.014-0.055-0.02-0.109-0.035-0.164
				c-1.31-4.917-6.358-7.84-11.275-6.53c-4.917,1.31-7.84,6.358-6.53,11.275c0.015,0.055,0.036,0.106,0.051,0.16
				C260.107,101.365,262.873,98.215,266.774,97.176z"/>
			<path style="fill:#F06262;" d="M306.444,48.94c4.035-0.128,7.591,2.091,9.382,5.42c-0.001-0.056,0.005-0.111,0.003-0.168
				c-0.161-5.086-4.415-9.078-9.501-8.916c-5.086,0.161-9.078,4.415-8.916,9.501c0.002,0.056,0.011,0.111,0.014,0.167
				C299.001,51.508,302.409,49.068,306.444,48.94z"/>
			<path style="fill:#F06262;" d="M224.628,200.05c6.825-3.084,14.497-1.804,19.93,2.631c-0.041-0.096-0.07-0.194-0.114-0.29
				c-3.887-8.604-14.013-12.427-22.617-8.54c-8.604,3.887-12.427,14.013-8.54,22.617c0.043,0.096,0.098,0.182,0.142,0.277
				C213.693,209.737,217.802,203.134,224.628,200.05z"/>
			<path style="fill:#954040;" d="M468.116,433.507c-12.837-4.884-26.735-1.686-36.186,7.038c0.065-0.18,0.107-0.363,0.176-0.543
				c6.156-16.181,24.264-24.308,40.445-18.152c16.181,6.156,24.308,24.264,18.152,40.445c-0.068,0.18-0.158,0.345-0.23,0.522
				C489.211,450.019,480.953,438.391,468.116,433.507z"/>
			<path style="fill:#954040;" d="M474.593,527.375c-7-2.663-14.58-0.919-19.733,3.838c0.035-0.098,0.058-0.198,0.096-0.296
				c3.357-8.824,13.232-13.256,22.056-9.899c8.824,3.357,13.256,13.232,9.899,22.056c-0.037,0.098-0.086,0.188-0.125,0.285
				C486.096,536.379,481.593,530.038,474.593,527.375z"/>
			<path style="fill:#954040;" d="M383.797,383.929c-7.476-0.454-14.19,3.472-17.69,9.55c0.004-0.104-0.003-0.206,0.003-0.311
				c0.572-9.424,8.675-16.6,18.099-16.028c9.424,0.572,16.6,8.675,16.028,18.099c-0.006,0.105-0.026,0.205-0.035,0.309
				C397.463,389.092,391.273,384.383,383.797,383.929z"/>
			<path style="fill:#954040;" d="M458.291,348.873c-7.476-0.454-14.19,3.472-17.69,9.55c0.004-0.104-0.003-0.206,0.003-0.311
				c0.572-9.424,8.675-16.6,18.099-16.028c9.424,0.572,16.599,8.675,16.028,18.099c-0.006,0.105-0.026,0.205-0.035,0.309
				C471.958,354.036,465.768,349.327,458.291,348.873z"/>
			<path style="fill:#954040;" d="M458.291,344.491c-7.476-0.454-14.19,3.472-17.69,9.55c0.004-0.104-0.003-0.206,0.003-0.311
				c0.572-9.424,8.675-16.6,18.099-16.028c9.424,0.572,16.599,8.675,16.028,18.099c-0.006,0.105-0.026,0.205-0.035,0.309
				C471.958,349.654,465.768,344.945,458.291,344.491z"/>
			<path style="fill:#954040;" d="M339.977,230.559c-7.476-0.454-14.19,3.472-17.69,9.55c0.004-0.104-0.003-0.206,0.003-0.311
				c0.572-9.424,8.675-16.6,18.099-16.028c9.424,0.572,16.6,8.675,16.028,18.099c-0.006,0.105-0.026,0.205-0.035,0.309
				C353.643,235.721,347.453,231.013,339.977,230.559z"/>
			<path style="fill:#954040;" d="M342.319,145.378c-3.901-1.039-7.867,0.316-10.366,3.152c0.013-0.055,0.02-0.109,0.035-0.164
				c1.31-4.917,6.358-7.84,11.275-6.53c4.917,1.31,7.84,6.358,6.53,11.275c-0.015,0.055-0.036,0.106-0.051,0.16
				C348.986,149.567,346.22,146.418,342.319,145.378z"/>
			<path style="fill:#954040;" d="M359.847,97.176c-3.901-1.039-7.867,0.316-10.366,3.152c0.013-0.055,0.02-0.109,0.035-0.164
				c1.31-4.917,6.358-7.84,11.275-6.53c4.917,1.31,7.84,6.358,6.53,11.275c-0.015,0.055-0.036,0.106-0.051,0.16
				C366.514,101.365,363.748,98.215,359.847,97.176z"/>
			<path style="fill:#954040;" d="M401.993,200.05c-6.825-3.084-14.497-1.804-19.93,2.631c0.041-0.096,0.07-0.194,0.114-0.29
				c3.887-8.604,14.013-12.427,22.617-8.54c8.604,3.887,12.427,14.013,8.54,22.617c-0.043,0.096-0.098,0.182-0.142,0.277
				C412.928,209.737,408.819,203.134,401.993,200.05z"/>
			<path style="fill:#954040;" d="M313.21,461.633c17.474,0.242,32.469,10.375,39.805,24.983c0.17-1.512,0.277-3.043,0.277-4.601
				c0-22.483-18.226-40.709-40.708-40.709"/>
			<path style="fill:#F06262;" d="M312.584,441.289c-22.483,0-40.709,18.226-40.709,40.709c0,1.569,0.11,3.112,0.282,4.635
				c7.531-15.022,23.123-25.265,41.053-25.017"/>
		</g>
	</g>
	<g id="Eyes">
		<g id="Eyes_10_">
			<path style="fill:#FFFFFF;" d="M240.28,286.749c15.832,0,29.424,9.513,35.426,23.125c2.105-4.775,3.295-10.043,3.295-15.596
				c0-21.385-17.336-38.721-38.721-38.721s-38.721,17.336-38.721,38.721c0,5.553,1.19,10.821,3.295,15.596
				C210.857,296.263,224.448,286.749,240.28,286.749z"/>
			<ellipse style="fill:#231F20;" cx="240.28" cy="269.806" rx="13.872" ry="14.249"/>
			<path style="fill:#FFFFFF;" d="M384.886,286.749c15.832,0,29.424,9.513,35.426,23.125c2.105-4.775,3.295-10.043,3.295-15.596
				c0-21.385-17.336-38.721-38.721-38.721s-38.721,17.336-38.721,38.721c0,5.553,1.19,10.821,3.295,15.596
				C355.463,296.263,369.055,286.749,384.886,286.749z"/>
			<ellipse style="fill:#231F20;" cx="384.886" cy="269.806" rx="13.872" ry="14.249"/>
		</g>
	</g>
	<g id="Mouth">
		<g id="Mouth_9_">
			<circle style="fill:#231F20;" cx="312.583" cy="360.321" r="16.98"/>
			<path style="fill:#ED3535;" d="M297.76,368.446c2.887,5.253,8.406,8.855,14.823,8.855c6.418,0,11.936-3.602,14.824-8.855
				c-2.881-5.241-8.381-8.841-14.784-8.855C306.191,359.577,300.654,363.182,297.76,368.446z"/>
		</g>
	</g>
	<g id="Nose">
		<g id="Nose_8_">
			<circle style="fill:#932222;" cx="312.583" cy="325.14" r="15.128"/>
			<ellipse style="fill:#280E0E;" cx="304.184" cy="326.518" rx="3.049" ry="7.037"/>
			<ellipse style="fill:#280E0E;" cx="320.982" cy="326.518" rx="3.049" ry="7.037"/>
		</g>
	</g>
</g>
<g id="Layer_1">
</g>
</svg>
