<?xml version="1.0" encoding="iso-8859-1"?>
<!-- Generator: Adobe Illustrator 18.1.1, SVG Export Plug-In . SVG Version: 6.00 Build 0)  -->
<svg version="1.1" xmlns="http://www.w3.org/2000/svg" xmlns:xlink="http://www.w3.org/1999/xlink" x="0px" y="0px"
	 viewBox="0 0 625 625" style="enable-background:new 0 0 625 625;" xml:space="preserve">
<g id="Layer_1_1_">
	<g id="Back">
		<polygon style="fill:#3781C3;" points="174.55,522.189 89.101,259.707 312.583,97.135 536.066,259.707 450.617,522.189 		"/>
	</g>
	<g id="Body">
		<g>
			<polygon style="fill:#9C54A1;" points="312.583,590.549 312.583,13 312.583,13 264.381,47.618 197.336,47.618 176.303,111.595 
				125.472,148.842 144.752,208.438 125.91,267.595 175.865,303.965 196.898,368.381 231.078,368.381 258.685,427.1 279.28,427.1 
				171.044,479.246 			"/>
			<polygon style="fill:#311537;" points="170.168,155.854 160.528,163.303 151.325,155.854 			"/>
			<polygon style="fill:#311537;" points="222.752,120.797 213.112,128.247 203.909,120.797 			"/>
			<polygon style="fill:#311537;" points="284.1,76.977 274.46,84.427 265.258,76.977 			"/>
			<polygon style="fill:#311537;" points="288.482,129.561 278.842,137.011 269.64,129.561 			"/>
			<polygon style="fill:#311537;" points="244.662,177.764 235.022,185.213 225.82,177.764 			"/>
			<polygon style="fill:#311537;" points="288.482,225.966 278.842,233.415 269.64,225.966 			"/>
			<polygon style="fill:#311537;" points="269.201,456.459 259.561,463.909 249.921,456.459 			"/>
			<polygon style="fill:#311537;" points="234.145,478.369 224.505,485.819 214.865,478.369 			"/>
			<polygon style="fill:#311537;" points="282.347,478.369 272.707,485.819 263.067,478.369 			"/>
			<polygon style="fill:#311537;" points="260.437,504.661 250.797,512.111 241.157,504.661 			"/>
			<polygon style="fill:#311537;" points="308.639,504.661 298.999,512.111 289.359,504.661 			"/>
			<polygon style="fill:#311537;" points="286.729,526.571 277.089,534.021 267.449,526.571 			"/>
			<polygon style="fill:#311537;" points="192.078,212.82 182.438,220.269 173.235,212.82 			"/>
			<polygon style="fill:#311537;" points="204.786,292.134 195.145,299.583 185.943,292.134 			"/>
			<polygon style="fill:#311537;" points="218.37,349.977 209.168,357.426 199.527,349.977 			"/>
			<path style="fill:#311537;" d="M312.583,427.1H279.28v30.236h0.438c2.191,7.888,16.213,14.461,32.865,14.461V427.1z"/>
			<polygon style="fill:#311537;" points="312.583,590.111 171.483,479.246 312.583,606.324 			"/>
			<polygon style="fill:#6F287A;" points="312.583,590.549 312.583,13 312.583,13 360.785,47.618 427.83,47.618 448.864,111.595 
				499.695,148.842 480.414,208.438 499.257,267.595 449.302,303.965 428.268,368.381 394.089,368.381 366.482,427.1 345.887,427.1 
				454.122,479.246 			"/>
			<polygon style="fill:#311537;" points="455.437,155.854 465.077,163.303 474.718,155.854 			"/>
			<polygon style="fill:#311537;" points="402.853,120.797 412.493,128.247 422.134,120.797 			"/>
			<polygon style="fill:#311537;" points="341.505,76.977 351.145,84.427 360.785,76.977 			"/>
			<polygon style="fill:#311537;" points="337.123,129.561 346.763,137.011 356.403,129.561 			"/>
			<polygon style="fill:#311537;" points="380.943,177.764 390.583,185.213 400.224,177.764 			"/>
			<polygon style="fill:#311537;" points="337.123,225.966 346.763,233.415 356.403,225.966 			"/>
			<polygon style="fill:#311537;" points="356.842,456.459 366.482,463.909 376.122,456.459 			"/>
			<polygon style="fill:#311537;" points="391.898,478.369 401.538,485.819 411.179,478.369 			"/>
			<polygon style="fill:#311537;" points="343.696,478.369 353.336,485.819 362.976,478.369 			"/>
			<polygon style="fill:#311537;" points="365.606,504.661 375.246,512.111 384.886,504.661 			"/>
			<polygon style="fill:#311537;" points="317.404,504.661 327.044,512.111 336.684,504.661 			"/>
			<polygon style="fill:#311537;" points="339.314,526.571 348.954,534.021 358.594,526.571 			"/>
			<polygon style="fill:#311537;" points="433.527,212.82 443.167,220.269 452.808,212.82 			"/>
			<polygon style="fill:#311537;" points="420.819,292.134 430.459,299.583 440.1,292.134 			"/>
			<polygon style="fill:#311537;" points="407.235,349.977 416.875,357.426 426.516,349.977 			"/>
			<path style="fill:#311537;" d="M312.583,427.1h33.303v30.236h-0.438c-2.191,7.888-16.213,14.461-32.865,14.461V427.1z"/>
			<polygon style="fill:#311537;" points="312.583,590.111 453.684,479.246 312.583,606.324 			"/>
		</g>
	</g>
	<g id="Nose">
		<g>
			<polygon points="312.364,335.078 312.364,333.763 298.342,358.741 312.364,358.741 			"/>
			<polygon points="312.364,335.078 312.364,333.763 326.825,358.741 312.364,358.741 			"/>
		</g>
	</g>
	<g id="Mouth">
		<g>
			<path style="fill:#C62527;" d="M280.156,384.594c-0.438,2.191-0.876,4.382-0.876,7.449c0,6.135,3.067,11.393,9.202,14.461
				c5.697,3.067,14.022,4.382,24.101,4.82v-14.022l-7.449-12.708H280.156z"/>
			<polygon style="fill:#FFFFFF;" points="298.561,384.594 291.55,396.864 284.1,384.594 			"/>
			<polygon style="fill:#FFFFFF;" points="312.583,384.594 312.583,396.864 305.572,384.594 			"/>
			<path style="fill:#C62527;" d="M345.01,384.594c0.438,2.191,0.876,4.382,0.876,7.449c0,6.135-3.067,11.393-9.202,14.461
				c-5.697,3.067-14.022,4.382-24.101,4.82v-14.022l7.449-12.708H345.01z"/>
			<polygon style="fill:#FFFFFF;" points="326.606,384.594 333.617,396.864 341.066,384.594 			"/>
			<polygon style="fill:#FFFFFF;" points="312.583,384.594 312.583,396.864 320.033,384.594 			"/>
		</g>
	</g>
	<g id="Eyes">
		<g>
			<path style="fill:#FFFFFF;" d="M218.37,295.64c0.876,22.348,18.843,40.314,40.753,40.314s39.876-17.966,40.753-40.314H218.37z"/>
			<path d="M231.078,295.64c1.753,14.461,13.584,25.854,28.483,25.854s26.73-11.393,28.483-25.854H231.078z"/>
			<path style="fill:#311537;" d="M277.089,289.067h-35.056c-6.573,0-11.831-5.258-11.831-12.27l0,0
				c0-6.573,5.258-12.27,11.831-12.27h35.056c6.573,0,12.27,5.258,12.27,12.27l0,0C288.92,283.808,283.662,289.067,277.089,289.067z
				"/>
			<path style="fill:#FFFFFF;" d="M407.235,295.64c-0.876,22.348-18.843,40.314-40.753,40.314c-21.91,0-39.876-17.966-40.753-40.314
				H407.235z"/>
			<path d="M394.527,295.64c-1.753,14.461-13.584,25.854-28.483,25.854c-14.899,0-26.73-11.393-28.483-25.854H394.527z"/>
			<path style="fill:#311537;" d="M348.954,289.067h35.056c6.573,0,12.27-5.258,12.27-12.27l0,0c0-6.573-5.258-12.27-12.27-12.27
				h-35.056c-6.573,0-12.27,5.258-12.27,12.27l0,0C336.684,283.808,341.943,289.067,348.954,289.067z"/>
		</g>
	</g>
</g>
<g id="Layer_1">
</g>
</svg>
