<?xml version="1.0" encoding="iso-8859-1"?>
<!-- Generator: Adobe Illustrator 18.1.1, SVG Export Plug-In . SVG Version: 6.00 Build 0)  -->
<svg version="1.1" xmlns="http://www.w3.org/2000/svg" xmlns:xlink="http://www.w3.org/1999/xlink" x="0px" y="0px"
	 viewBox="0 0 625 625" style="enable-background:new 0 0 625 625;" xml:space="preserve">
<g id="Layer_8">
	<g id="Back">
		<path id="Back_9_" style="fill:#3E3E60;" d="M540.037,104.946c0-55.032-45.027-100.059-100.059-100.059H185.189
			c-55.032,0-100.059,45.027-100.059,100.059v254.789c0,3.717,0.243,7.378,0.643,10.993c-0.38,5.375-0.643,10.783-0.643,16.255
			c0,125.619,101.835,227.453,227.454,227.453s227.454-101.834,227.454-227.453c0-5.472-0.262-10.88-0.643-16.255
			c0.4-3.615,0.643-7.276,0.643-10.993V104.946z M500.803,351.098c0,3.076-0.201,6.105-0.532,9.097
			c0.315,4.448,0.532,8.923,0.532,13.452c0,103.951-84.269,188.22-188.22,188.22s-188.22-84.269-188.22-188.22
			c0-4.529,0.217-9.004,0.532-13.452c-0.331-2.992-0.532-6.021-0.532-9.097v-210.84c0-45.54,37.26-82.8,82.8-82.8h210.84
			c45.54,0,82.8,37.26,82.8,82.8V351.098z"/>
	</g>
	<g id="Body">
		<g id="Body_12_">
			<g>
				<g>
					<path style="fill:#A49032;" d="M469.973,238.228l-1.092,38.118l-16.967,101.189l95.572,77.195l0.717,6.615L311.239,608.167
						v-488.56V11.266C483.41,5.423,469.973,238.228,469.973,238.228z"/>
				</g>
				<g>
					<path style="fill:#FFE920;" d="M155.193,238.228l5.474,46.882l12.585,92.425l-95.572,77.195l-0.717,6.615l236.964,146.821
						v-488.56V11.266C141.757,5.423,155.193,238.228,155.193,238.228z"/>
				</g>
				<polygon style="fill:#C4B02F;" points="169.341,520.248 192.757,534.756 169.341,550.695 				"/>
				<polygon style="fill:#C4B02F;" points="104.159,479.166 127.574,493.675 104.159,509.614 				"/>
				<polygon style="fill:#C4B02F;" points="230.141,558.043 253.557,572.551 230.141,588.49 				"/>
				<polygon style="fill:#7F702C;" points="451.705,520.248 428.29,534.756 451.705,550.695 				"/>
				<polygon style="fill:#7F702C;" points="516.888,479.166 493.472,493.675 516.888,509.614 				"/>
				<polygon style="fill:#7F702C;" points="390.906,558.043 367.49,572.551 390.906,588.49 				"/>
			</g>
			<circle style="fill:#FFE920;" cx="155.278" cy="273.569" r="11.541"/>
			<circle style="fill:#FFE920;" cx="155.278" cy="172.783" r="11.541"/>
			<circle style="fill:#A49032;" cx="466.401" cy="172.783" r="11.541"/>
			<circle style="fill:#FFE920;" cx="207.862" cy="54.468" r="11.541"/>
			<circle style="fill:#DFC722;" cx="218.6" cy="130.509" r="11.541"/>
			<circle style="fill:#DFC722;" cx="281.96" cy="67.15" r="11.541"/>
			<circle style="fill:#DFC722;" cx="292.36" cy="224.881" r="11.541"/>
			<circle style="fill:#DFC722;" cx="230.147" cy="365.966" r="11.541"/>
			<circle style="fill:#DFC722;" cx="219.404" cy="509.614" r="11.541"/>
			<circle style="fill:#DFC722;" cx="284.216" cy="454.778" r="11.541"/>
			<circle style="fill:#DFC722;" cx="151.271" cy="431.696" r="11.541"/>
			<circle style="fill:#7F702C;" cx="409.075" cy="130.509" r="11.541"/>
			<circle style="fill:#7F702C;" cx="345.716" cy="67.15" r="11.541"/>
			<circle style="fill:#7F702C;" cx="335.315" cy="224.881" r="11.541"/>
			<circle style="fill:#7F702C;" cx="397.529" cy="365.966" r="11.541"/>
			<circle style="fill:#7F702C;" cx="408.272" cy="509.614" r="11.541"/>
			<circle style="fill:#7F702C;" cx="343.459" cy="454.778" r="11.541"/>
			<circle style="fill:#7F702C;" cx="476.405" cy="431.696" r="11.541"/>
			<circle style="fill:#A49032;" cx="418.199" cy="54.468" r="11.541"/>
			<circle style="fill:#A49032;" cx="466.401" cy="273.569" r="11.541"/>
		</g>
	</g>
	<g id="Mouth">
		<g id="Mouth_11_">
			<path style="fill:#FFFFFF;" d="M347.779,384.359h-70.391c-1.329,0-2.417-1.088-2.417-2.417v-16.346
				c0-1.329,1.087-2.417,2.417-2.417h70.391c1.329,0,2.417,1.087,2.417,2.417v16.346
				C350.196,383.271,349.108,384.359,347.779,384.359z"/>
			
				<line style="fill:none;stroke:#231F20;stroke-width:0.4;stroke-miterlimit:10;" x1="285.561" y1="363.179" x2="285.561" y2="383.695"/>
			
				<line style="fill:none;stroke:#231F20;stroke-width:0.4;stroke-miterlimit:10;" x1="293.705" y1="363.179" x2="293.705" y2="383.695"/>
			
				<line style="fill:none;stroke:#231F20;stroke-width:0.4;stroke-miterlimit:10;" x1="303.564" y1="363.179" x2="303.564" y2="383.695"/>
			
				<line style="fill:none;stroke:#231F20;stroke-width:0.4;stroke-miterlimit:10;" x1="320.617" y1="363.179" x2="320.617" y2="383.695"/>
			
				<line style="fill:none;stroke:#231F20;stroke-width:0.4;stroke-miterlimit:10;" x1="312.583" y1="363.179" x2="312.583" y2="383.695"/>
			
				<line style="fill:none;stroke:#231F20;stroke-width:0.4;stroke-miterlimit:10;" x1="328.761" y1="363.179" x2="328.761" y2="383.695"/>
			
				<line style="fill:none;stroke:#231F20;stroke-width:0.4;stroke-miterlimit:10;" x1="338.621" y1="363.179" x2="338.621" y2="383.695"/>
		</g>
	</g>
	<g id="Eyes">
		<g id="Eyes_12_">
			<g>
				<ellipse style="fill:#FFFFFF;" cx="218.749" cy="289.124" rx="37.87" ry="38.899"/>
				<ellipse style="fill:#231F20;" cx="218.749" cy="289.124" rx="26.38" ry="27.097"/>
				<ellipse style="fill:#C8C8C8;" cx="406.418" cy="289.124" rx="37.87" ry="38.899"/>
				<ellipse style="fill:#231F20;" cx="406.418" cy="289.124" rx="26.38" ry="27.097"/>
			</g>
			<path style="fill:none;stroke:#231F20;stroke-miterlimit:10;" d="M197.686,233.91c11.989-11.989,31.391-11.989,43.38,0"/>
			<path style="fill:none;stroke:#231F20;stroke-miterlimit:10;" d="M386.149,235.175c11.269-12.668,30.638-13.799,43.306-2.53"/>
		</g>
	</g>
	<g id="Nose">
		<path id="Nose_10_" style="fill:#240D13;" d="M320.801,335.72c0.024-0.579,0.042-1.162,0.042-1.755
			c0-10.76-4.107-19.483-9.173-19.483c-5.066,0-9.173,8.723-9.173,19.483c0,0.925,0.041,1.828,0.1,2.719
			c-3.426,2.11-5.651,5.24-5.651,8.784c0,6.353,7.002,11.503,15.638,11.503s15.638-5.15,15.638-11.503
			C328.222,341.34,325.241,337.749,320.801,335.72z"/>
	</g>
</g>
<g id="Layer_1">
</g>
</svg>
