<?xml version="1.0" encoding="iso-8859-1"?>
<!-- Generator: Adobe Illustrator 18.1.1, SVG Export Plug-In . SVG Version: 6.00 Build 0)  -->
<svg version="1.1" xmlns="http://www.w3.org/2000/svg" xmlns:xlink="http://www.w3.org/1999/xlink" x="0px" y="0px"
	 viewBox="0 0 625 625" style="enable-background:new 0 0 625 625;" xml:space="preserve">
<g id="Layer_2">
	<g id="Back">
		<polygon style="fill:#E8E619;" points="227.927,516.702 108.298,397.073 108.298,227.927 227.927,108.298 397.073,108.298 
			516.702,227.927 516.702,397.073 397.073,516.702 		"/>
	</g>
	<g id="Body">
		<g>
			<polygon style="fill:#134423;" points="110.134,442.923 312.145,345.642 514.594,442.923 312.145,601.989 			"/>
			<g>
				<path style="fill:#2AAF57;" d="M110.134,283.417L110.134,283.417L110.134,283.417z"/>
				<path style="fill:#2AAF57;" d="M165.786,227.328l-55.652,56.09l72.741,72.741l-88.078,71.427l-0.876,6.135l219.1,135.842
					V118.216V17.429C153.516,12.171,165.786,227.328,165.786,227.328z"/>
			</g>
			<g>
				<path style="fill:#1C7139;" d="M515.032,283.417L515.032,283.417L515.032,283.417z"/>
				<path style="fill:#1C7139;" d="M459.381,227.328l55.652,56.09l-72.741,72.741l88.078,71.427l0.876,6.135l-219.1,135.842V118.216
					V17.429C471.65,12.171,459.381,227.328,459.381,227.328z"/>
			</g>
			<path style="fill:#1C7139;" d="M224.505,107.699c-7.449,0-14.899-4.82-21.034-13.146c5.697,13.146,13.146,21.034,21.034,21.034
				c8.326,0,15.775-7.888,21.034-21.034C239.404,102.879,232.393,107.699,224.505,107.699z"/>
			<path style="fill:#1C7139;" d="M276.213,168.171c-4.82,0-9.202-3.067-13.146-8.326c3.506,8.326,7.888,13.146,13.146,13.146
				c5.258,0,9.64-4.82,13.146-13.146C285.415,165.103,281.033,168.171,276.213,168.171z"/>
			<path style="fill:#1C7139;" d="M172.797,285.17c-4.82,0-9.202-3.067-13.146-8.326c3.506,8.326,7.888,13.146,13.146,13.146
				c5.258,0,9.64-4.82,13.146-13.146C181.999,282.103,177.617,285.17,172.797,285.17z"/>
			<path style="fill:#1C7139;" d="M291.988,468.338c-4.82,0-9.202-3.067-13.146-8.326c3.506,8.326,7.888,13.146,13.146,13.146
				s9.64-4.82,13.146-13.146C301.628,465.271,296.808,468.338,291.988,468.338z"/>
			<path style="fill:#1C7139;" d="M203.471,215.058c-7.449,0-14.461-4.82-20.595-12.708c5.258,12.708,12.27,20.157,20.595,20.157
				c7.888,0,14.899-7.888,20.595-20.157C217.932,210.238,210.921,215.058,203.471,215.058z"/>
			<path style="fill:#1C7139;" d="M270.954,520.046c-7.449,0-14.461-4.82-20.595-12.708c5.258,12.708,12.27,20.157,20.595,20.157
				c7.888,0,14.899-7.888,20.595-20.157C285.415,515.664,278.404,520.046,270.954,520.046z"/>
			<path style="fill:#1C7139;" d="M165.786,433.282c-7.449,0-14.461-4.82-20.595-12.708c5.258,12.708,12.27,20.157,20.595,20.157
				c7.888,0,14.899-7.888,20.595-20.157C179.808,428.9,172.797,433.282,165.786,433.282z"/>
			<path style="fill:#1C7139;" d="M233.269,370.619c-7.449,0-14.461-4.82-20.595-12.708c5.258,12.708,12.27,20.157,20.595,20.157
				c7.888,0,14.899-7.888,20.595-20.157C247.73,366.237,240.718,370.619,233.269,370.619z"/>
			<path style="fill:#1C7139;" d="M253.864,240.912c-3.506,0-6.573-2.191-9.202-5.697c2.191,5.697,5.697,9.202,9.202,9.202
				c3.506,0,7.011-3.506,9.202-9.202C260.437,238.721,256.932,240.912,253.864,240.912z"/>
			<path style="fill:#1C7139;" d="M227.134,465.271c-3.506,0-6.573-2.191-9.202-5.697c2.191,5.697,5.697,9.202,9.202,9.202
				s7.011-3.506,9.202-9.202C233.269,463.518,230.202,465.271,227.134,465.271z"/>
			<path style="fill:#1C7139;" d="M276.213,417.069c-3.506,0-6.573-2.191-9.202-5.697c2.191,5.697,5.697,9.202,9.202,9.202
				s7.011-3.506,9.202-9.202C282.786,415.316,279.718,417.069,276.213,417.069z"/>
			<path style="fill:#1C7139;" d="M276.213,72.643c-3.506,0-6.573-2.191-9.202-5.697c2.191,5.697,5.697,9.202,9.202,9.202
				s7.011-3.506,9.202-9.202C282.786,70.89,279.718,72.643,276.213,72.643z"/>
			<path style="fill:#1C7139;" d="M224.505,107.699c-7.449,0-14.899-4.82-21.034-13.146c5.697,13.146,13.146,21.034,21.034,21.034
				c8.326,0,15.775-7.888,21.034-21.034C239.404,102.879,232.393,107.699,224.505,107.699z"/>
			<path style="fill:#1C7139;" d="M276.213,168.171c-4.82,0-9.202-3.067-13.146-8.326c3.506,8.326,7.888,13.146,13.146,13.146
				c5.258,0,9.64-4.82,13.146-13.146C285.415,165.103,281.033,168.171,276.213,168.171z"/>
			<path style="fill:#1C7139;" d="M172.797,285.17c-4.82,0-9.202-3.067-13.146-8.326c3.506,8.326,7.888,13.146,13.146,13.146
				c5.258,0,9.64-4.82,13.146-13.146C181.999,282.103,177.617,285.17,172.797,285.17z"/>
			<path style="fill:#1C7139;" d="M291.988,468.338c-4.82,0-9.202-3.067-13.146-8.326c3.506,8.326,7.888,13.146,13.146,13.146
				s9.64-4.82,13.146-13.146C301.628,465.271,296.808,468.338,291.988,468.338z"/>
			<path style="fill:#1C7139;" d="M203.471,215.058c-7.449,0-14.461-4.82-20.595-12.708c5.258,12.708,12.27,20.157,20.595,20.157
				c7.888,0,14.899-7.888,20.595-20.157C217.932,210.238,210.921,215.058,203.471,215.058z"/>
			<path style="fill:#1C7139;" d="M270.954,520.046c-7.449,0-14.461-4.82-20.595-12.708c5.258,12.708,12.27,20.157,20.595,20.157
				c7.888,0,14.899-7.888,20.595-20.157C285.415,515.664,278.404,520.046,270.954,520.046z"/>
			<path style="fill:#1C7139;" d="M165.786,433.282c-7.449,0-14.461-4.82-20.595-12.708c5.258,12.708,12.27,20.157,20.595,20.157
				c7.888,0,14.899-7.888,20.595-20.157C179.808,428.9,172.797,433.282,165.786,433.282z"/>
			<path style="fill:#1C7139;" d="M233.269,370.619c-7.449,0-14.461-4.82-20.595-12.708c5.258,12.708,12.27,20.157,20.595,20.157
				c7.888,0,14.899-7.888,20.595-20.157C247.73,366.237,240.718,370.619,233.269,370.619z"/>
			<path style="fill:#1C7139;" d="M253.864,240.912c-3.506,0-6.573-2.191-9.202-5.697c2.191,5.697,5.697,9.202,9.202,9.202
				c3.506,0,7.011-3.506,9.202-9.202C260.437,238.721,256.932,240.912,253.864,240.912z"/>
			<path style="fill:#1C7139;" d="M227.134,465.271c-3.506,0-6.573-2.191-9.202-5.697c2.191,5.697,5.697,9.202,9.202,9.202
				s7.011-3.506,9.202-9.202C233.269,463.518,230.202,465.271,227.134,465.271z"/>
			<path style="fill:#1C7139;" d="M276.213,417.069c-3.506,0-6.573-2.191-9.202-5.697c2.191,5.697,5.697,9.202,9.202,9.202
				s7.011-3.506,9.202-9.202C282.786,415.316,279.718,417.069,276.213,417.069z"/>
			<path style="fill:#1C7139;" d="M276.213,72.643c-3.506,0-6.573-2.191-9.202-5.697c2.191,5.697,5.697,9.202,9.202,9.202
				s7.011-3.506,9.202-9.202C282.786,70.89,279.718,72.643,276.213,72.643z"/>
			<path style="fill:#134222;" d="M400.224,107.699c7.449,0,14.899-4.82,21.034-13.146c-5.697,13.146-13.146,21.034-21.034,21.034
				c-8.326,0-15.775-7.888-21.034-21.034C385.325,102.879,392.336,107.699,400.224,107.699z"/>
			<path style="fill:#134222;" d="M348.516,168.171c4.82,0,9.202-3.067,13.146-8.326c-3.506,8.326-7.888,13.146-13.146,13.146
				s-9.64-4.82-13.146-13.146C339.314,165.103,343.696,168.171,348.516,168.171z"/>
			<path style="fill:#134222;" d="M451.931,285.17c4.82,0,9.202-3.067,13.146-8.326c-3.506,8.326-7.888,13.146-13.146,13.146
				s-9.64-4.82-13.146-13.146C442.729,282.103,447.111,285.17,451.931,285.17z"/>
			<path style="fill:#134222;" d="M332.741,468.338c4.82,0,9.202-3.067,13.146-8.326c-3.506,8.326-7.888,13.146-13.146,13.146
				c-5.258,0-9.64-4.82-13.146-13.146C323.1,465.271,327.92,468.338,332.741,468.338z"/>
			<path style="fill:#134222;" d="M421.257,215.058c7.449,0,14.461-4.82,20.595-12.708c-5.258,12.708-12.27,20.157-20.595,20.157
				c-7.888,0-14.899-7.888-20.595-20.157C406.797,210.238,413.808,215.058,421.257,215.058z"/>
			<path style="fill:#134222;" d="M353.774,520.046c7.449,0,14.461-4.82,20.595-12.708c-5.258,12.708-12.27,20.157-20.595,20.157
				c-7.888,0-14.899-7.888-20.595-20.157C339.314,515.664,346.325,520.046,353.774,520.046z"/>
			<path style="fill:#134222;" d="M458.942,433.282c7.449,0,14.461-4.82,20.595-12.708c-5.258,12.708-12.27,20.157-20.595,20.157
				c-7.888,0-14.899-7.888-20.595-20.157C444.92,428.9,451.931,433.282,458.942,433.282z"/>
			<path style="fill:#134222;" d="M391.46,370.619c7.449,0,14.461-4.82,20.595-12.708c-5.258,12.708-12.27,20.157-20.595,20.157
				c-7.888,0-14.899-7.888-20.595-20.157C376.999,366.237,384.01,370.619,391.46,370.619z"/>
			<path style="fill:#134222;" d="M370.864,240.912c3.506,0,6.573-2.191,9.202-5.697c-2.191,5.697-5.697,9.202-9.202,9.202
				c-3.506,0-7.011-3.506-9.202-9.202C364.291,238.721,367.797,240.912,370.864,240.912z"/>
			<path style="fill:#134222;" d="M397.594,465.271c3.506,0,6.573-2.191,9.202-5.697c-2.191,5.697-5.697,9.202-9.202,9.202
				c-3.506,0-7.011-3.506-9.202-9.202C391.46,463.518,394.527,465.271,397.594,465.271z"/>
			<path style="fill:#134222;" d="M348.516,417.069c3.506,0,6.573-2.191,9.202-5.697c-2.191,5.697-5.697,9.202-9.202,9.202
				c-3.506,0-7.011-3.506-9.202-9.202C341.943,415.316,345.01,417.069,348.516,417.069z"/>
			<path style="fill:#134222;" d="M348.516,72.643c3.506,0,6.573-2.191,9.202-5.697c-2.191,5.697-5.697,9.202-9.202,9.202
				c-3.506,0-7.011-3.506-9.202-9.202C341.943,70.89,345.01,72.643,348.516,72.643z"/>
		</g>
	</g>
	<g id="Nose">
		<g>
			<ellipse cx="302.943" cy="350.024" rx="7.011" ry="4.382"/>
			<ellipse cx="323.1" cy="350.024" rx="7.011" ry="4.382"/>
		</g>
	</g>
	<g id="Mouth">
		<g>
			<path style="fill:#BC2032;" d="M312.583,367.99h-32.427c-4.82,0-9.202,3.944-9.202,9.202c0,4.82,3.944,9.202,9.202,9.202h32.427
				V367.99z"/>
			<g>
				<path style="fill:#BC2032;" d="M311.926,367.99h32.427c4.82,0,9.202,3.944,9.202,9.202c0,4.82-3.944,9.202-9.202,9.202h-32.427
					V367.99z"/>
				<polygon style="fill:#FFFFFF;" points="298.342,367.99 291.331,379.383 284.758,367.99 				"/>
				<polygon style="fill:#FFFFFF;" points="339.094,367.99 332.521,379.383 325.51,367.99 				"/>
				<polygon style="fill:#FFFFFF;" points="318.499,367.99 311.488,379.383 304.915,367.99 				"/>
			</g>
		</g>
	</g>
	<g id="Eyes">
		<g>
			<ellipse style="fill:#FFFFFF;" cx="262.628" cy="291.743" rx="37.685" ry="39"/>
			<ellipse cx="262.628" cy="291.743" rx="26.292" ry="27.168"/>
			<ellipse style="fill:#C9C9C9;" cx="362.538" cy="291.743" rx="37.685" ry="39"/>
			<ellipse transform="matrix(0.0438 -0.999 0.999 0.0438 55.1955 641.1549)" cx="362.538" cy="291.743" rx="27.168" ry="26.292"/>
		</g>
	</g>
</g>
<g id="Layer_1">
</g>
</svg>
