<?xml version="1.0" encoding="iso-8859-1"?>
<!-- Generator: Adobe Illustrator 18.1.1, SVG Export Plug-In . SVG Version: 6.00 Build 0)  -->
<svg version="1.1" xmlns="http://www.w3.org/2000/svg" xmlns:xlink="http://www.w3.org/1999/xlink" x="0px" y="0px"
	 viewBox="0 0 625 625" style="enable-background:new 0 0 625 625;" xml:space="preserve">
<g id="Layer_4">
	<g id="Back">
		<circle id="Back_3_" style="fill:#DD0000;" cx="312.583" cy="309.662" r="271.685"/>
	</g>
	<g id="Body">
		<g id="Body_4_">
			<path style="fill:#5BC4C2;" d="M516.614,394.763c0-41.895-12.647-80.829-34.307-113.226l18.059-31.279L406.492,87.665H218.745
				l-93.873,162.593l18.058,31.279c-21.66,32.396-34.307,71.33-34.307,113.226c0,52.632,19.94,73.596,52.668,81.004
				c10.666,73.977,74.294,130.83,151.225,130.83c76.912,0,140.528-56.825,151.217-130.775
				C496.59,468.458,516.614,447.512,516.614,394.763z"/>
			<path style="fill:#448C87;" d="M482.307,281.117l18.059-31.279L406.492,87.246h-93.874v518.93
				c76.865-0.051,140.43-56.855,151.114-130.773c32.857-7.364,52.881-28.31,52.881-81.059
				C516.614,352.448,503.967,313.514,482.307,281.117z"/>
			<path style="fill:#F5EC52;" d="M218.745,87.666c0,0-102.872-22.355-101.777-74.939c0,0-61.973,83.97,7.904,237.532
				L218.745,87.666z"/>
			<path style="fill:#F5EC52;" d="M406.421,87.666c0,0,102.872-22.355,101.777-74.939c0,0,61.973,83.97-7.904,237.532
				L406.421,87.666z"/>
		</g>
	</g>
	<g id="Eyes">
		<g id="Eyes_4_">
			<ellipse style="fill:#FFFFFF;" cx="271.079" cy="297.192" rx="31.426" ry="32.28"/>
			<ellipse style="fill:#231F20;" cx="271.079" cy="297.192" rx="21.891" ry="22.486"/>
			<ellipse style="fill:#C8C8C8;" cx="312.583" cy="243.092" rx="21.243" ry="21.82"/>
			<ellipse style="fill:#231F20;" cx="312.583" cy="243.092" rx="14.797" ry="15.2"/>
			<ellipse style="fill:#C8C8C8;" cx="354.088" cy="297.192" rx="31.426" ry="32.28"/>
			<ellipse style="fill:#231F20;" cx="354.088" cy="297.192" rx="21.891" ry="22.486"/>
		</g>
	</g>
	<g id="Mouth">
		<g id="Mouth_4_">
			<path style="fill:#3F656C;" d="M385.662,396.153c0,0-62.991-0.365-72.93-37.612h-0.297c-9.939,37.247-72.93,37.612-72.93,37.612"
				/>
		</g>
	</g>
	<g id="Nose">
		<ellipse id="Nose_4_" style="fill:#0C0F1C;" cx="312.583" cy="351.284" rx="23.927" ry="5.905"/>
	</g>
</g>
<g id="Layer_1">
</g>
</svg>
