<?xml version="1.0" encoding="iso-8859-1"?>
<!-- Generator: Adobe Illustrator 18.1.1, SVG Export Plug-In . SVG Version: 6.00 Build 0)  -->
<svg version="1.1" xmlns="http://www.w3.org/2000/svg" xmlns:xlink="http://www.w3.org/1999/xlink" x="0px" y="0px"
	 viewBox="0 0 625 625" style="enable-background:new 0 0 625 625;" xml:space="preserve">
<g id="Layer_5">
	<g id="Back">
		<g id="Back_4_">
			<path style="fill:#8989DB;" d="M542.149,169.438V132.68c0-28.921-23.663-52.584-52.584-52.584H135.602
				c-28.921,0-52.584,23.663-52.584,52.584v36.757H542.149z"/>
			<rect x="83.018" y="310.038" style="fill:#8989DB;" width="459.132" height="44.295"/>
			<path style="fill:#8989DB;" d="M83.741,494.933c4.014,25.01,25.765,44.295,51.86,44.295h353.963
				c26.095,0,47.847-19.285,51.86-44.295H83.741z"/>
		</g>
	</g>
	<g id="Body">
		<g id="Body_6_">
			<path style="fill:#85C340;" d="M107.609,226.543c0,41.895,100.287,124.649,121.947,157.046l-88.171-12.542l76.345,162.593
				h187.747l76.345-162.593l-88.171,12.542c21.66-32.396,121.947-115.15,121.947-157.046c0-52.632-19.941-73.596-52.668-81.004
				c-10.666-73.977-74.294-130.83-151.225-130.83c-76.912,0-140.528,56.825-151.217,130.775
				C127.632,152.848,107.609,173.795,107.609,226.543z"/>
			<path style="fill:#6E9B40;" d="M395.611,384.009l88.171-12.542l-76.345,162.593h-93.874V15.131
				c76.865,0.051,140.43,56.855,151.114,130.773c32.857,7.364,52.881,28.31,52.881,81.059
				C517.558,268.859,417.271,351.612,395.611,384.009z"/>
			<polygon style="fill:#6E9B40;" points="229.556,383.589 312.896,466.93 312.896,591.027 230.876,569.117 141.385,371.048 			"/>
			<polygon style="fill:#4F6C31;" points="396.829,383.589 313.488,466.93 313.488,591.027 395.508,569.117 484.999,371.048 			"/>
			<polygon style="fill:#27331A;" points="141.385,371.048 218.376,582.154 313.563,604.615 313.488,591.027 230.876,569.117 			"/>
			<polygon style="fill:#27331A;" points="484.461,371.048 407.47,582.154 312.283,604.615 312.358,591.027 394.97,569.117 			"/>
		</g>
	</g>
	<g id="Eyes">
		<g id="Eyes_6_">
			
				<ellipse transform="matrix(0.9084 -0.4181 0.4181 0.9084 -94.2522 115.3746)" cx="216.164" cy="272.776" rx="26.214" ry="36.14"/>
			
				<ellipse transform="matrix(0.9084 -0.4181 0.4181 0.9084 -90.4808 117.4897)" style="fill:#FFFFFF;" cx="222.877" cy="265.227" rx="8.459" ry="19.355"/>
			
				<ellipse transform="matrix(0.9084 -0.4181 0.4181 0.9084 -107.4715 139.5359)" cx="264.692" cy="315.023" rx="17.532" ry="24.17"/>
			
				<ellipse transform="matrix(0.9084 -0.4181 0.4181 0.9084 -105.2533 140.7467)" style="fill:#FFFFFF;" cx="268.565" cy="310.567" rx="6.34" ry="10.94"/>
			
				<ellipse transform="matrix(-0.9084 -0.4181 0.4181 -0.9084 666.4788 691.5776)" cx="409.002" cy="272.776" rx="26.214" ry="36.14"/>
			
				<ellipse transform="matrix(-0.9084 -0.4181 0.4181 -0.9084 556.2039 751.9115)" cx="360.474" cy="315.023" rx="17.532" ry="24.17"/>
			
				<ellipse transform="matrix(-0.9084 -0.4181 0.4181 -0.9084 652.9896 673.524)" style="fill:#FFFFFF;" cx="400.28" cy="265.227" rx="8.459" ry="19.355"/>
			
				<ellipse transform="matrix(-0.9084 -0.4181 0.4181 -0.9084 546.8422 740.9474)" style="fill:#FFFFFF;" cx="354.592" cy="310.567" rx="6.34" ry="10.94"/>
		</g>
	</g>
	<g id="Mouth">
		<g id="Mouth_6_">
			<path style="fill:#F5EC52;" d="M337.065,397.682c0,9.142-19.137,43.7-9.995,43.7c9.142,0,43.1-34.558,43.1-43.7
				c0-9.142-7.411-16.552-16.552-16.552C344.476,381.13,337.065,388.541,337.065,397.682z"/>
			<path style="fill:#F5EC52;" d="M288.102,397.682c0,9.142,19.137,43.7,9.995,43.7c-9.142,0-43.1-34.558-43.1-43.7
				c0-9.142,7.411-16.552,16.552-16.552C280.691,381.13,288.102,388.541,288.102,397.682z"/>
		</g>
	</g>
	<g id="Nose">
		<g id="Nose_5_">
			<path style="fill:#1C2414;" d="M304.489,367.868h-4.228c-0.344,0-0.625-0.281-0.625-0.625v-5.323
				c0-0.344,0.281-0.625,0.625-0.625h4.228c0.344,0,0.625,0.281,0.625,0.625v5.323C305.114,367.586,304.833,367.868,304.489,367.868
				z"/>
			<path style="fill:#1C2414;" d="M325.685,367.868h-4.228c-0.344,0-0.625-0.281-0.625-0.625v-5.323
				c0-0.344,0.281-0.625,0.625-0.625h4.228c0.344,0,0.625,0.281,0.625,0.625v5.323C326.31,367.586,326.029,367.868,325.685,367.868z
				"/>
			<path style="fill:#1C2414;" d="M339.147,360.431h-4.228c-0.344,0-0.625-0.281-0.625-0.625v-5.323
				c0-0.344,0.281-0.625,0.625-0.625h4.228c0.344,0,0.625,0.281,0.625,0.625v5.323C339.772,360.15,339.49,360.431,339.147,360.431z"
				/>
			<path style="fill:#1C2414;" d="M290.248,360.431h-4.228c-0.344,0-0.625-0.281-0.625-0.625v-5.323
				c0-0.344,0.281-0.625,0.625-0.625h4.228c0.344,0,0.625,0.281,0.625,0.625v5.323C290.873,360.15,290.591,360.431,290.248,360.431z
				"/>
		</g>
	</g>
</g>
<g id="Layer_1">
</g>
</svg>
