<?xml version="1.0" encoding="utf-8"?>
<!-- Generator: Adobe Illustrator 18.1.1, SVG Export Plug-In . SVG Version: 6.00 Build 0)  -->
<svg version="1.1" id="Layer_1" xmlns="http://www.w3.org/2000/svg" xmlns:xlink="http://www.w3.org/1999/xlink" x="0px" y="0px"
	 viewBox="0 0 150 150" enable-background="new 0 0 150 150" xml:space="preserve">
<g>
	<rect x="61.4" y="71.2" fill="#AA8B3C" width="28.1" height="50.6"/>
	<rect x="72" y="71" fill="#82692F" width="18" height="52"/>
	<path fill="#896E31" d="M113.9,62c8.6,2.5,17.7-2.4,20.3-11s-2.4-17.7-11-20.3c-3.2-0.9-6.5-0.9-9.4,0.1c5.1-3.5,11.6-4.7,17.9-2.8
		c11.2,3.3,17.6,15,14.3,26.2s-15,17.6-26.2,14.3c-5.8-1.7-10.3-5.7-12.9-10.8C108.7,59.6,111.1,61.1,113.9,62z"/>
	<path fill="#AA8B3C" d="M36.1,62c-8.6,2.5-17.7-2.4-20.3-11s2.4-17.7,11-20.3c3.2-0.9,6.5-0.9,9.4,0.1c-5.1-3.5-11.6-4.7-17.9-2.8
		C7.2,31.2,0.8,42.9,4.1,54.1s15,17.6,26.2,14.3c5.8-1.7,10.3-5.7,12.9-10.8C41.3,59.6,38.9,61.1,36.1,62z"/>
	<path fill="#F7CC54" d="M27.9,15c-2.6,7-4,12.3-4,19.3c0,28.4,23,51.2,51.5,51.2s51.5-22.6,51.5-51.1c0-7-1.4-12.5-4-19.5H27.9z"/>
	<path fill="#F7CC54" d="M107.6,136c-0.3-11-8.4-18-18.2-18H62.3c-9.9,0-18,7-18.2,18H107.6z"/>
	<path fill="#D1AA4A" d="M78,136h29.6c-0.3-11-7.7-18-16.7-18H78V136z"/>
	<path fill="#D1AA4A" d="M122.8,15H79v70.5c28,0,47.6-22.6,47.6-51C126.6,27.4,125.4,22,122.8,15z"/>
	<polygon fill="#82692F" stroke="#82692F" stroke-linecap="round" stroke-miterlimit="10" points="78.5,68.5 78.5,29.5 75.5,29.5 
		68.9,32.4 68.9,36.5 73.5,34.8 73.5,34.5 73.5,68.5 69.5,68.5 69.5,71.5 82.5,71.5 82.5,68.5 	"/>
</g>
</svg>
