<?xml version="1.0" encoding="utf-8"?>
<!-- Generator: Adobe Illustrator 18.1.1, SVG Export Plug-In . SVG Version: 6.00 Build 0)  -->
<svg version="1.1" id="Layer_1" xmlns="http://www.w3.org/2000/svg" xmlns:xlink="http://www.w3.org/1999/xlink" x="0px" y="0px"
	 viewBox="0 0 512 512" enable-background="new 0 0 512 512" xml:space="preserve">
<g>
	<circle fill="#EF3635" cx="256" cy="256" r="249.5"/>
	<circle fill="#EDEDED" cx="257.1" cy="256" r="218.3"/>
	<polygon fill="#BBB1A1" points="294,138.9 475.4,256 257.1,474.3 	"/>
	<path fill="#BBB1A1" d="M475.4,256c0,0,3.5,71.3-46.4,134.5l-171.9,83.8l-0.9-96.1"/>
	<path fill="#6FBE44" d="M257.1,338.3c-69.8,0-131.9,20.4-171.9,52.2c40,51,102.1,83.8,171.9,83.8c69.8,0,131.9-32.8,171.9-83.8
		C389,358.8,326.9,338.3,257.1,338.3z"/>
	<path fill="#467336" d="M256,338.3C256,338.4,256,338.4,256,338.3l0,51.2c50.1,31.9,47.7,30.4,97.8,62.2
		c29.4-14.6,55.1-35.6,75.2-61.2C388.8,358.6,326.3,338.1,256,338.3z"/>
	<path fill="#EF3635" d="M257.1,204.8c-17.9,0-32.4-14.5-32.4-32.4s14.5-32.4,32.4-32.4v-17.5c-27.6,0-49.9,22.3-49.9,49.9
		s22.3,217.1,49.9,217.1V204.8z"/>
	<path fill="#9C2524" d="M257.1,122.5L257.1,122.5l0,17.5h0c17.9,0,32.4,14.5,32.4,32.4s-14.5,32.4-32.4,32.4h0v184.7h0
		c27.6,0,49.9-189.5,49.9-217.1S284.7,122.5,257.1,122.5z"/>
</g>
</svg>
